<?xml version="1.0" standalone="no"?>
<!DOCTYPE svg PUBLIC "-//W3C//DTD SVG 20010904//EN"
 "http://www.w3.org/TR/2001/REC-SVG-20010904/DTD/svg10.dtd">
<svg version="1.0" xmlns="http://www.w3.org/2000/svg"
 width="512.000000pt" height="512.000000pt" viewBox="0 0 512.000000 512.000000"
 preserveAspectRatio="xMidYMid meet">

<g transform="translate(0.000000,512.000000) scale(0.100000,-0.100000)"
fill="#f9f9f9" stroke="none">
<path d="M1820 5110 c-230 -18 -583 -80 -649 -115 -54 -27 -66 -96 -26 -143
35 -42 67 -46 170 -21 50 11 137 29 195 39 l105 18 130 -30 c1037 -237 1895
-807 2234 -1485 34 -69 75 -173 69 -177 -1 -2 -300 89 -663 201 -363 112 -694
212 -736 223 -357 92 -643 -59 -757 -398 -24 -70 -26 -91 -26 -237 1 -145 3
-168 28 -249 57 -187 163 -356 369 -587 386 -434 938 -749 2147 -1224 151 -60
277 -109 279 -111 1 -1 -9 -39 -24 -83 -22 -68 -37 -93 -99 -164 -81 -92 -226
-218 -327 -283 -61 -40 -169 -84 -204 -84 -8 0 -343 164 -743 364 -780 391
-849 431 -1158 662 -741 553 -1350 1207 -1611 1729 -87 173 -153 399 -153 522
1 122 88 369 188 533 42 68 34 88 -99 270 -67 90 -118 166 -113 167 5 2 72 36
149 76 162 84 186 110 166 177 -13 44 -47 70 -92 70 -37 0 -397 -181 -440
-221 -37 -34 -46 -73 -27 -113 9 -17 67 -101 130 -186 63 -85 117 -160 121
-166 4 -7 -15 -58 -43 -115 -160 -336 -219 -727 -200 -1321 10 -296 26 -529
41 -608 13 -65 57 -138 104 -175 l34 -26 0 -87 c-1 -131 49 -246 144 -328 51
-44 2605 -1324 2692 -1349 89 -26 203 -17 287 22 36 17 84 48 108 69 l42 38
194 -97 c155 -77 207 -99 252 -103 157 -17 377 104 613 336 150 148 191 205
230 316 98 283 148 582 171 1026 32 637 -66 1324 -262 1826 -120 306 -264 531
-493 769 -435 452 -1038 734 -1747 818 -161 19 -539 27 -700 15z m797 -230
c160 -23 307 -58 485 -116 684 -222 1211 -687 1451 -1279 63 -155 165 -480
154 -491 -1 -2 -65 17 -142 40 -77 24 -172 53 -212 65 l-72 21 -16 58 c-78
285 -227 536 -476 804 -334 359 -800 661 -1359 880 l-125 49 91 -6 c50 -3 149
-14 221 -25z m-82 -1440 c33 -5 138 -33 233 -62 145 -44 172 -56 172 -72 0
-26 -191 -1320 -196 -1325 -8 -8 -168 135 -280 251 -280 290 -388 482 -401
713 -6 119 6 196 46 281 80 171 230 246 426 214z m1428 -430 l794 -244 17
-111 c38 -250 49 -426 49 -740 0 -217 -5 -360 -16 -475 -18 -177 -54 -410 -65
-422 -7 -7 -463 171 -747 290 -354 149 -737 336 -953 467 -111 67 -113 69
-108 99 3 17 48 326 101 686 52 360 98 665 101 678 2 13 11 22 18 20 8 -2 372
-113 809 -248z m-3589 -196 c116 -222 270 -440 489 -694 120 -139 434 -456
602 -608 l80 -73 -592 295 c-566 282 -592 297 -601 328 -18 56 -62 878 -47
878 2 0 33 -57 69 -126z m2986 -2515 c0 -17 -60 -34 -121 -34 l-69 0 -1307
655 c-1237 619 -1310 657 -1336 696 -16 22 -31 60 -34 83 l-6 42 1437 -718
c790 -395 1436 -721 1436 -724z"/>
<path d="M763 4862 c-33 -26 -46 -68 -33 -108 23 -70 108 -88 161 -35 38 39
39 87 3 130 -21 26 -33 31 -67 31 -24 0 -51 -8 -64 -18z"/>
<path d="M957 4580 c-30 -24 -45 -80 -30 -113 15 -33 164 -231 182 -242 45
-28 104 -21 133 18 10 12 18 40 18 62 0 36 -11 56 -89 161 -56 77 -98 123
-113 127 -42 12 -75 7 -101 -13z"/>
<path d="M614 4459 c-26 -13 -54 -60 -54 -92 0 -26 13 -48 114 -185 41 -56 77
-94 96 -102 62 -26 130 20 130 88 0 41 -23 81 -117 204 -71 94 -112 114 -169
87z"/>
<path d="M3358 821 c-27 -24 -33 -36 -33 -71 0 -35 6 -47 34 -72 29 -26 39
-30 75 -25 99 14 119 140 29 186 -36 18 -71 13 -105 -18z"/>
<path d="M3633 708 c-24 -11 -53 -64 -53 -96 0 -42 44 -74 241 -173 109 -54
210 -99 224 -99 43 0 82 27 95 65 10 30 9 41 -7 73 -16 34 -36 46 -221 140
-200 101 -234 112 -279 90z"/>
</g>
</svg>
