<?xml version="1.0" standalone="no"?>
<!DOCTYPE svg PUBLIC "-//W3C//DTD SVG 20010904//EN"
 "http://www.w3.org/TR/2001/REC-SVG-20010904/DTD/svg10.dtd">
<svg version="1.0" xmlns="http://www.w3.org/2000/svg"
 width="3840.000000pt" height="2160.000000pt" viewBox="0 0 3840.000000 2160.000000"
 preserveAspectRatio="xMidYMid meet">
<metadata>
Created by potrace 1.16, written by Peter Selinger 2001-2019
</metadata>
<g transform="translate(0.000000,2160.000000) scale(0.100000,-0.100000)"
fill="#000000" stroke="none">
<path d="M9770 14711 c0 -22 4 -42 9 -46 6 -3 13 -26 17 -50 3 -25 10 -48 15
-51 5 -3 9 -20 9 -38 0 -18 3 -36 7 -40 5 -4 13 -29 19 -54 7 -26 19 -73 28
-105 9 -32 16 -69 16 -83 0 -14 7 -32 15 -40 8 -9 15 -26 15 -39 0 -13 5 -36
11 -52 6 -15 15 -44 19 -63 5 -19 20 -78 35 -130 15 -52 29 -112 32 -133 3
-20 9 -40 14 -43 5 -3 9 -22 9 -43 0 -20 5 -42 11 -48 6 -6 15 -29 19 -50 13
-60 31 -126 40 -148 8 -20 14 -44 29 -120 4 -22 13 -50 19 -62 7 -12 12 -33
12 -47 0 -14 5 -28 10 -31 6 -3 10 -26 10 -50 0 -24 5 -45 11 -47 6 -2 15 -21
19 -43 4 -22 16 -67 25 -100 10 -33 21 -76 25 -95 5 -19 16 -60 25 -90 9 -30
19 -68 21 -85 3 -16 9 -39 14 -50 16 -40 34 -120 31 -143 -1 -13 4 -29 12 -35
8 -7 17 -28 20 -47 3 -19 12 -57 21 -85 39 -127 69 -244 73 -282 3 -24 9 -43
14 -43 5 0 9 -17 9 -39 0 -22 6 -44 15 -51 8 -7 15 -28 15 -46 0 -19 4 -42 10
-52 17 -30 34 -106 33 -144 -1 -25 3 -38 11 -38 13 0 33 -64 43 -133 3 -20 9
-40 14 -43 5 -3 9 -23 9 -45 0 -23 7 -47 15 -55 8 -9 15 -31 15 -49 0 -19 5
-37 10 -40 6 -3 10 -26 10 -51 0 -24 4 -44 10 -44 5 0 12 -12 15 -27 9 -44 37
-136 46 -155 5 -10 9 -33 9 -52 0 -19 5 -38 10 -41 6 -3 10 -18 10 -33 1 -15
7 -38 15 -52 8 -14 14 -39 15 -56 0 -17 3 -34 7 -38 9 -9 33 -96 40 -149 3
-20 9 -40 14 -43 5 -3 9 -17 9 -32 1 -15 7 -38 15 -52 8 -14 14 -39 15 -57 0
-17 5 -35 10 -38 6 -3 10 -16 10 -28 0 -12 6 -42 14 -67 8 -25 22 -72 31 -105
10 -33 21 -73 26 -90 5 -16 18 -69 29 -117 20 -85 20 -118 20 -1581 0 -823 3
-1502 6 -1511 6 -14 72 -16 649 -16 596 0 643 1 649 17 4 9 7 735 7 1611 l-1
1595 24 76 c14 42 32 103 41 136 9 33 20 68 26 77 5 10 9 29 9 42 0 13 7 37
15 52 8 16 15 39 15 51 0 12 5 25 10 28 6 3 10 22 10 41 0 22 6 37 15 40 9 4
15 17 14 33 -2 34 21 122 38 142 7 8 13 32 13 52 0 20 4 37 9 37 5 0 11 17 14
38 2 20 12 62 22 92 20 68 28 94 55 195 12 44 25 89 29 100 21 54 41 125 41
143 0 12 5 24 10 27 6 3 10 17 10 30 0 13 4 34 9 47 5 13 17 50 27 83 9 33 34
117 55 186 22 69 39 135 39 147 0 11 5 24 10 27 6 3 10 16 10 28 0 12 7 35 15
51 8 15 15 41 15 57 0 15 5 31 10 34 6 3 10 19 10 35 0 16 6 35 14 42 7 8 16
32 19 54 5 38 9 53 42 164 9 30 20 73 25 95 4 22 13 41 19 43 6 2 11 15 11 30
0 24 40 169 61 220 5 13 9 32 9 43 0 10 4 27 9 37 15 31 41 119 41 141 0 12 4
29 9 39 9 18 26 74 67 222 14 52 29 102 34 110 4 9 11 35 15 58 4 23 11 44 16
48 5 3 9 15 9 27 0 19 18 77 40 132 5 11 11 34 14 50 8 50 27 119 35 130 5 5
11 24 14 40 16 86 26 120 36 123 6 2 11 21 11 42 0 21 4 41 9 44 5 3 11 20 14
38 6 41 75 277 88 300 5 10 9 31 9 47 0 17 4 32 9 35 5 4 12 24 16 46 4 22 11
42 16 46 5 3 9 32 9 65 l0 59 -543 0 -542 0 -24 -77 c-27 -91 -32 -108 -67
-228 -14 -49 -32 -108 -40 -130 -8 -23 -14 -50 -14 -62 0 -12 -4 -25 -10 -28
-5 -3 -10 -18 -10 -33 -1 -15 -7 -38 -15 -52 -8 -14 -14 -40 -15 -57 0 -18 -4
-33 -10 -33 -5 0 -10 -14 -10 -31 0 -17 -5 -40 -12 -52 -11 -21 -18 -46 -39
-134 -6 -24 -15 -43 -20 -43 -5 0 -9 -18 -9 -39 0 -22 -4 -43 -10 -46 -5 -3
-10 -15 -10 -27 0 -11 -6 -34 -14 -51 -8 -18 -17 -45 -19 -62 -3 -16 -10 -46
-16 -65 -26 -87 -43 -147 -51 -175 -5 -16 -16 -55 -25 -85 -9 -30 -19 -66 -22
-80 -2 -14 -8 -34 -13 -45 -4 -11 -16 -49 -25 -85 -10 -36 -28 -99 -40 -140
-13 -41 -30 -102 -39 -135 -10 -33 -21 -68 -27 -77 -5 -10 -9 -31 -9 -47 0
-17 -4 -32 -9 -35 -5 -4 -12 -24 -16 -46 -4 -22 -11 -42 -16 -46 -5 -3 -9 -17
-9 -31 0 -14 -11 -60 -24 -102 -14 -42 -36 -116 -51 -166 -14 -49 -30 -100
-36 -113 -5 -13 -9 -33 -9 -45 0 -12 -7 -35 -15 -51 -8 -15 -15 -41 -15 -57 0
-15 -4 -30 -9 -34 -5 -3 -12 -20 -16 -38 -7 -32 -13 -55 -39 -137 -12 -36 -16
-41 -21 -25 -4 11 -11 30 -16 43 -5 13 -9 35 -9 50 0 16 -5 33 -11 39 -6 6
-11 32 -11 56 1 31 -3 47 -13 51 -8 3 -15 16 -15 28 0 13 -10 55 -21 93 -11
39 -24 86 -29 105 -10 43 -47 193 -60 240 -5 19 -16 58 -24 87 -9 28 -16 61
-16 72 0 11 -4 23 -10 26 -5 3 -10 23 -10 44 0 20 -4 41 -10 47 -5 5 -14 30
-19 54 -5 25 -17 72 -26 105 -10 33 -19 71 -22 85 -2 14 -8 34 -13 45 -10 22
-19 67 -27 135 -3 25 -9 48 -14 51 -10 6 -36 93 -46 152 -3 21 -10 40 -14 43
-5 3 -9 25 -9 50 0 24 -4 44 -9 44 -9 0 -19 33 -41 135 -18 84 -35 144 -43
151 -4 4 -7 22 -7 41 0 18 -4 41 -9 51 -13 22 -56 181 -91 332 -8 35 -39 152
-65 245 -8 28 -19 70 -26 95 -6 25 -15 58 -20 74 -5 16 -9 46 -9 66 0 24 -5
40 -15 44 -9 3 -15 18 -15 36 l0 30 -590 0 -590 0 0 -39z"/>
<path d="M14585 14720 c-4 -16 -11 -30 -16 -30 -5 0 -9 -29 -9 -64 0 -40 -5
-70 -13 -78 -8 -8 -13 -39 -13 -85 0 -44 -5 -78 -12 -85 -7 -7 -12 -40 -12
-80 0 -48 -4 -70 -13 -74 -10 -3 -13 -28 -13 -86 0 -54 -4 -83 -12 -86 -8 -2
-12 -28 -12 -72 0 -50 -4 -73 -16 -85 -13 -13 -15 -28 -11 -68 5 -37 2 -61 -8
-81 -9 -16 -15 -55 -15 -92 0 -45 -4 -66 -14 -70 -9 -4 -13 -25 -12 -79 1 -47
-4 -79 -11 -86 -8 -8 -13 -40 -13 -81 0 -50 -4 -70 -14 -74 -10 -4 -14 -23
-13 -72 1 -88 -25 -244 -41 -250 -9 -3 -11 -20 -6 -66 5 -46 3 -66 -8 -77 -8
-9 -14 -40 -15 -84 -1 -48 -6 -73 -16 -80 -11 -8 -15 -30 -13 -83 0 -41 -4
-76 -10 -80 -5 -4 -11 -38 -12 -77 -1 -48 -6 -73 -16 -81 -10 -7 -14 -30 -14
-80 2 -83 -23 -242 -38 -252 -7 -4 -11 -35 -10 -75 1 -39 -4 -71 -10 -75 -6
-4 -11 -40 -12 -82 -1 -51 -5 -78 -15 -85 -10 -7 -14 -30 -13 -78 1 -47 -3
-70 -13 -76 -9 -6 -11 -18 -7 -37 4 -16 0 -65 -9 -109 -8 -44 -15 -97 -15
-117 0 -20 -7 -44 -16 -53 -12 -11 -14 -25 -10 -49 4 -19 1 -54 -5 -78 -6 -23
-14 -76 -18 -116 -5 -41 -12 -77 -18 -80 -5 -4 -9 -40 -10 -80 0 -41 -5 -78
-12 -85 -6 -6 -11 -39 -11 -73 0 -40 -5 -68 -14 -76 -9 -9 -13 -37 -13 -81 0
-39 -4 -72 -11 -79 -7 -7 -12 -41 -12 -79 0 -44 -5 -72 -14 -81 -9 -9 -13 -37
-13 -82 0 -38 -4 -70 -10 -74 -6 -4 -11 -38 -12 -77 0 -48 -5 -73 -15 -80 -10
-8 -14 -31 -13 -85 1 -49 -3 -75 -11 -78 -8 -2 -12 -29 -12 -77 0 -41 -4 -76
-9 -79 -4 -3 -11 -40 -14 -82 -3 -42 -10 -80 -15 -83 -6 -3 -13 -38 -15 -76
-11 -141 -26 -238 -37 -245 -6 -4 -11 -18 -10 -31 5 -58 -1 -109 -15 -122 -10
-11 -14 -34 -12 -81 1 -42 -2 -69 -10 -74 -6 -4 -13 -41 -16 -82 -8 -120 -25
-243 -36 -249 -5 -3 -11 -38 -14 -76 -8 -119 -26 -238 -36 -244 -5 -3 -9 -36
-10 -74 0 -37 -4 -75 -9 -84 -5 -10 -12 -49 -15 -87 -3 -38 -9 -71 -15 -75 -6
-3 -10 -37 -11 -75 0 -37 -4 -73 -9 -80 -5 -6 -12 -44 -14 -85 -3 -40 -10 -76
-16 -80 -5 -3 -10 -36 -10 -73 0 -37 -4 -73 -9 -80 -4 -7 -10 -44 -14 -82 -3
-37 -12 -72 -19 -76 -6 -4 -11 -23 -10 -41 5 -79 0 -109 -15 -109 -14 0 -15
-10 -9 -60 4 -40 2 -70 -6 -90 -10 -25 -10 -36 0 -56 l13 -24 533 0 c588 0
544 -5 544 64 0 18 7 41 15 52 10 13 14 44 15 97 0 58 4 79 14 83 11 4 14 25
13 91 -2 61 2 87 11 90 8 3 12 28 12 78 0 50 5 78 14 88 10 9 13 37 12 96 0
53 3 84 11 89 6 4 13 42 16 87 8 137 25 258 37 265 7 4 11 23 10 41 -4 69 0
108 13 121 9 9 13 40 13 96 -1 53 3 85 11 90 7 5 12 35 12 81 0 41 5 79 11 85
5 5 10 37 10 71 l0 60 674 -3 674 -2 12 -31 c7 -16 13 -62 12 -102 0 -43 4
-75 11 -79 7 -4 13 -42 15 -85 2 -43 9 -84 14 -91 6 -7 11 -52 12 -100 0 -60
5 -92 15 -102 10 -10 12 -32 8 -87 -4 -59 -3 -73 9 -73 15 0 20 -45 15 -129
-1 -28 2 -47 11 -52 9 -6 13 -32 12 -86 0 -52 4 -81 12 -88 16 -12 38 -184 36
-279 -1 -52 2 -72 14 -80 12 -9 15 -31 15 -96 0 -46 4 -87 10 -91 6 -3 12 -32
15 -65 3 -32 10 -69 16 -81 l11 -23 588 0 c678 0 606 -15 588 121 -6 46 -15
118 -19 159 -5 41 -17 122 -26 180 -10 58 -18 136 -17 174 1 45 -3 73 -12 82
-7 7 -16 42 -19 76 -4 35 -12 85 -18 112 -6 26 -8 73 -4 103 5 44 3 58 -9 67
-11 8 -16 31 -17 86 0 42 -6 78 -12 82 -6 4 -11 41 -11 90 1 57 -3 86 -12 93
-9 7 -14 37 -15 90 -1 45 -6 83 -12 87 -7 4 -11 40 -10 87 1 59 -2 81 -12 85
-10 4 -14 28 -14 90 0 59 -4 86 -12 89 -9 2 -13 29 -12 90 1 64 -2 87 -12 91
-10 4 -14 27 -14 90 0 59 -4 86 -12 89 -9 2 -12 27 -11 85 1 62 -2 82 -13 86
-9 3 -14 20 -14 43 0 21 -7 76 -15 121 -8 46 -12 103 -8 127 4 33 2 48 -11 60
-12 12 -16 36 -16 95 0 52 -4 80 -12 82 -8 3 -12 29 -11 79 0 44 -4 77 -11 81
-6 4 -12 44 -14 90 -2 46 -9 89 -15 96 -6 7 -10 49 -10 93 1 43 -3 79 -7 79
-12 0 -20 45 -22 115 -1 33 -6 63 -11 66 -5 4 -9 42 -9 85 0 48 -5 82 -11 86
-7 4 -13 42 -15 90 -2 46 -8 94 -15 107 -7 13 -12 54 -12 90 1 41 -4 71 -12
79 -8 9 -13 41 -13 92 0 48 -4 80 -11 82 -7 2 -12 35 -12 83 -1 51 -6 85 -14
93 -8 9 -13 41 -13 91 0 44 -5 82 -11 88 -7 7 -12 44 -12 85 -1 46 -6 78 -14
86 -8 9 -13 41 -13 91 0 43 -5 82 -11 88 -6 6 -11 46 -12 90 0 43 -4 81 -9 84
-5 3 -13 42 -18 88 -5 45 -12 86 -15 91 -3 5 -6 44 -6 87 0 48 -5 81 -12 85
-8 5 -12 36 -11 85 0 55 -4 81 -13 88 -10 7 -14 35 -14 90 0 50 -5 82 -12 87
-8 5 -11 36 -11 89 1 59 -2 87 -12 96 -10 10 -14 39 -14 93 0 54 -4 80 -12 83
-9 3 -12 27 -11 82 1 51 -3 82 -11 90 -17 17 -41 194 -38 281 2 57 -1 73 -13
78 -12 4 -15 22 -15 79 0 44 -5 78 -12 85 -8 8 -12 41 -11 90 0 42 -3 80 -9
83 -12 8 -27 118 -21 153 4 18 1 31 -8 37 -10 6 -14 30 -14 86 0 49 -5 83 -12
91 -8 8 -13 41 -13 82 0 38 -4 71 -9 74 -5 3 -12 32 -16 63 -3 32 -9 68 -12
81 l-5 22 -903 0 -903 0 -7 -30z m818 -1358 c-4 -38 -2 -56 7 -62 7 -4 16 -42
21 -86 4 -44 13 -106 19 -139 5 -33 7 -74 4 -92 -4 -23 -1 -37 11 -50 15 -14
17 -29 12 -92 -5 -60 -3 -77 10 -86 11 -9 15 -31 15 -91 0 -48 5 -82 12 -86 7
-5 11 -37 10 -87 -1 -59 2 -81 12 -85 10 -4 14 -27 14 -86 0 -58 5 -88 16
-106 13 -19 16 -40 11 -97 -4 -56 -1 -74 10 -82 11 -9 15 -32 16 -91 0 -46 5
-82 11 -86 7 -5 11 -40 10 -90 -1 -57 3 -86 12 -96 9 -9 14 -38 14 -87 0 -50
4 -75 12 -77 9 -3 13 -30 12 -89 0 -57 4 -88 13 -97 8 -9 13 -40 13 -92 0 -51
4 -80 12 -82 8 -3 11 -32 11 -91 -1 -48 2 -87 7 -87 12 0 21 -48 22 -121 0
-35 6 -67 12 -71 7 -5 11 -39 10 -92 -1 -64 2 -86 12 -90 10 -4 14 -26 14 -84
0 -48 5 -83 12 -90 8 -8 12 -41 11 -94 -1 -58 3 -85 13 -95 13 -14 19 -71 15
-140 -2 -19 2 -33 9 -33 7 0 10 -13 8 -32 l-3 -33 -480 0 -480 0 0 53 c1 29 6
56 12 60 6 4 10 38 10 79 -1 45 4 78 11 85 7 7 12 41 12 84 0 54 4 77 16 89
12 12 15 27 11 59 -3 23 0 78 8 121 8 44 14 99 15 122 0 23 6 48 13 55 8 8 13
39 13 85 0 44 5 78 12 85 7 7 12 41 12 84 0 49 5 77 14 87 10 10 14 36 13 89
-1 44 3 81 9 89 7 8 14 51 16 97 2 46 8 86 14 90 7 4 11 35 10 79 -1 46 4 77
12 84 7 8 12 41 12 85 0 50 5 77 14 87 11 10 14 35 13 86 -1 47 2 74 10 79 7
4 11 25 10 47 -3 77 3 134 16 147 9 8 13 39 13 87 -1 51 3 76 12 78 8 3 12 29
12 83 0 55 4 83 14 93 10 10 14 36 14 83 -1 86 23 262 38 272 6 4 10 40 10 85
-1 55 3 80 12 86 9 5 13 23 12 47 -5 72 0 113 15 127 10 11 13 28 9 63 -7 57
12 146 27 123 4 -8 6 -38 2 -67z"/>
<path d="M18080 14735 c0 -8 -4 -15 -10 -15 -7 0 -10 -1322 -10 -3945 l0
-3945 525 0 525 0 5 23 c3 12 6 1319 8 2904 1 1585 5 2885 10 2889 13 13 17
-1 19 -62 2 -32 7 -62 13 -66 5 -4 9 -35 8 -69 -1 -42 3 -67 13 -76 9 -9 14
-37 14 -78 0 -42 4 -65 13 -68 8 -2 11 -24 10 -69 -2 -50 1 -68 12 -72 11 -4
15 -22 15 -64 0 -34 7 -73 16 -91 11 -23 14 -45 9 -80 -5 -39 -3 -49 9 -54 12
-5 16 -20 16 -60 0 -29 5 -58 11 -64 7 -7 12 -40 13 -75 1 -35 7 -69 14 -76 7
-8 12 -40 12 -78 0 -35 4 -64 9 -64 5 0 12 -26 16 -57 3 -32 10 -74 14 -93 5
-19 16 -78 25 -130 9 -52 18 -111 22 -130 3 -19 8 -62 11 -95 3 -33 10 -63 15
-66 6 -4 10 -35 11 -70 0 -39 5 -69 14 -77 8 -8 13 -37 13 -77 0 -39 4 -65 12
-67 7 -3 11 -28 11 -68 0 -41 5 -70 14 -78 7 -8 13 -36 13 -67 0 -30 4 -56 9
-59 4 -3 11 -29 15 -58 4 -29 11 -75 16 -103 13 -71 39 -219 51 -295 6 -36 15
-87 21 -114 6 -27 10 -71 9 -97 0 -27 4 -49 9 -49 5 0 12 -17 15 -37 3 -21 12
-72 19 -113 8 -41 12 -88 9 -104 -4 -18 -1 -31 8 -37 10 -6 14 -28 13 -71 0
-42 4 -66 14 -73 8 -7 14 -33 15 -70 0 -33 6 -63 11 -67 6 -4 10 -34 8 -69 -2
-46 2 -64 13 -73 11 -8 16 -31 17 -76 1 -38 8 -71 15 -78 7 -7 13 -34 13 -60
0 -25 4 -59 9 -76 5 -17 17 -74 25 -126 9 -52 21 -117 26 -145 34 -185 39
-227 33 -255 -4 -25 -2 -35 10 -42 13 -7 17 -24 17 -78 0 -39 4 -70 11 -72 6
-2 14 -36 19 -76 16 -125 -43 -112 518 -112 l487 0 13 27 c6 15 12 55 12 90 0
45 4 65 14 69 10 4 14 25 13 80 0 44 5 80 11 86 7 7 12 41 12 79 0 43 5 72 13
81 9 8 14 35 13 68 -1 65 31 272 44 280 4 3 8 33 7 67 0 34 5 68 10 75 6 7 13
45 16 83 7 111 28 249 38 260 5 5 9 37 9 71 0 39 5 68 14 76 9 9 13 38 12 86
0 44 5 77 12 84 7 7 12 40 12 80 0 48 4 70 14 74 9 4 13 25 12 79 -1 47 4 79
12 86 7 8 12 41 12 86 0 51 4 75 13 79 9 3 13 27 12 79 0 46 5 79 13 86 7 8
12 41 12 85 0 48 5 77 14 86 9 9 13 38 13 85 -1 44 4 77 12 86 7 9 12 24 11
34 -5 47 1 103 13 115 9 8 13 38 13 84 -1 42 4 77 11 86 7 8 12 25 11 39 -4
70 3 119 17 119 11 0 14 14 13 68 -2 82 21 243 37 257 6 6 11 41 12 80 1 104
24 245 39 245 10 0 11 16 7 68 -4 53 -2 71 10 83 11 11 15 37 15 94 1 56 5 82
14 90 10 7 14 31 14 75 0 36 7 112 17 170 10 58 22 133 26 168 4 35 12 67 19
71 7 4 11 34 10 80 -1 42 3 75 9 79 6 4 13 43 17 87 9 125 22 219 33 239 8 15
11 10 17 -30 3 -26 6 -1331 6 -2899 0 -1567 0 -2871 0 -2898 l0 -47 613 2 612
3 3 3958 2 3957 -954 0 -954 0 -5 -22 c-3 -13 -9 -47 -13 -76 -4 -29 -12 -59
-19 -65 -7 -8 -12 -40 -11 -85 1 -42 -4 -76 -10 -80 -6 -4 -11 -38 -11 -76 0
-50 -5 -73 -16 -81 -12 -8 -14 -25 -10 -76 4 -47 2 -69 -8 -80 -9 -9 -14 -40
-15 -86 -1 -40 -6 -78 -12 -85 -5 -7 -12 -48 -14 -91 -2 -45 -8 -81 -15 -85
-7 -5 -12 -35 -12 -76 0 -38 -4 -72 -9 -75 -5 -3 -11 -43 -13 -89 -3 -55 -9
-86 -18 -91 -9 -6 -11 -18 -7 -37 4 -16 0 -67 -9 -114 -8 -47 -15 -99 -15
-117 0 -17 -6 -38 -13 -45 -8 -8 -13 -42 -13 -92 -1 -51 -5 -81 -12 -84 -8 -2
-12 -29 -12 -72 0 -48 -5 -73 -15 -84 -11 -10 -15 -32 -13 -73 2 -70 -25 -252
-39 -262 -6 -3 -10 -42 -9 -85 0 -55 -3 -81 -12 -84 -8 -2 -12 -28 -12 -78 0
-51 -4 -76 -13 -79 -8 -4 -12 -30 -12 -86 0 -48 -5 -83 -11 -87 -7 -4 -13 -42
-16 -85 -2 -43 -8 -81 -14 -85 -7 -4 -11 -37 -11 -78 1 -40 -4 -78 -9 -85 -6
-8 -11 -43 -13 -79 -1 -43 -6 -69 -16 -76 -10 -7 -13 -30 -13 -75 1 -35 -5
-106 -12 -158 -11 -74 -18 -95 -32 -99 -10 -2 -18 -12 -19 -21 0 -9 -5 -2 -10
14 -5 17 -6 51 -3 78 6 39 4 47 -10 47 -13 0 -16 12 -16 70 0 39 -4 70 -9 70
-6 0 -12 21 -16 48 -3 26 -10 70 -15 97 -5 28 -16 91 -25 140 -9 50 -20 109
-25 133 -6 23 -10 55 -10 71 0 17 -5 42 -11 58 -6 15 -11 58 -11 95 1 49 -3
68 -14 72 -10 4 -14 23 -14 71 0 36 -4 65 -8 65 -10 0 -32 121 -39 210 -2 30
-8 64 -13 75 -11 22 -29 123 -37 200 -2 28 -9 61 -14 75 -5 14 -13 54 -18 90
-5 36 -17 106 -26 155 -9 50 -16 112 -16 138 0 32 -5 54 -15 65 -13 12 -15 28
-10 74 6 49 4 58 -9 58 -15 0 -21 37 -16 103 1 15 -5 34 -13 42 -11 12 -14 28
-9 65 4 37 2 53 -11 65 -15 16 -22 60 -17 114 1 13 -3 28 -10 32 -7 4 -15 35
-17 71 -2 35 -8 67 -13 73 -5 5 -9 24 -9 43 0 19 -7 64 -14 101 -8 36 -20 100
-27 141 -6 41 -18 103 -25 138 -8 35 -11 80 -8 101 5 30 2 39 -10 44 -13 5
-16 21 -16 76 0 40 -4 71 -11 73 -5 2 -13 22 -16 46 l-6 42 -913 0 c-806 0
-914 -2 -914 -15z"/>
<path d="M24807 14708 c-8 -24 -18 -70 -20 -102 -3 -33 -10 -62 -16 -65 -5 -4
-10 -31 -10 -61 0 -31 -4 -76 -10 -100 -5 -25 -13 -71 -16 -102 -4 -32 -11
-58 -16 -58 -5 0 -9 -31 -9 -69 0 -49 -5 -74 -15 -85 -10 -10 -15 -33 -14 -73
1 -32 -6 -103 -15 -158 -9 -55 -21 -134 -27 -175 -5 -40 -13 -77 -18 -80 -5
-3 -9 -37 -10 -75 0 -52 -4 -73 -16 -81 -12 -9 -15 -27 -14 -70 3 -75 -19
-226 -35 -239 -7 -6 -11 -40 -11 -88 0 -48 -4 -80 -12 -85 -6 -4 -11 -33 -11
-70 0 -34 -5 -68 -10 -75 -6 -6 -12 -41 -15 -77 -7 -94 -26 -222 -37 -245 -5
-11 -11 -47 -13 -80 -7 -90 -28 -219 -38 -229 -5 -6 -9 -41 -9 -78 0 -50 -4
-70 -14 -74 -11 -4 -14 -24 -13 -78 1 -43 -3 -79 -10 -87 -6 -8 -13 -45 -16
-84 -7 -110 -25 -227 -37 -239 -5 -5 -10 -41 -10 -78 0 -48 -4 -70 -13 -74
-10 -3 -14 -27 -13 -84 1 -51 -3 -83 -11 -91 -8 -8 -13 -39 -13 -76 0 -49 -4
-65 -16 -70 -12 -4 -14 -15 -9 -52 3 -28 0 -75 -10 -119 -8 -40 -15 -88 -15
-107 0 -18 -6 -40 -13 -47 -7 -8 -12 -42 -13 -87 0 -49 -4 -76 -12 -79 -8 -2
-12 -28 -12 -72 0 -42 -5 -74 -13 -82 -8 -8 -12 -39 -12 -80 0 -41 -5 -72 -12
-79 -8 -8 -13 -41 -13 -86 0 -58 -3 -73 -15 -73 -12 0 -14 -13 -13 -62 3 -78
-21 -239 -38 -253 -8 -7 -11 -37 -10 -83 1 -50 -3 -75 -12 -81 -7 -4 -12 -21
-10 -37 5 -69 -2 -124 -16 -124 -10 0 -13 -18 -12 -75 0 -42 -4 -79 -9 -83 -6
-4 -11 -38 -12 -77 -1 -51 -6 -73 -18 -81 -13 -10 -15 -23 -10 -71 6 -46 4
-63 -8 -74 -10 -11 -15 -37 -15 -87 -1 -40 -4 -77 -7 -82 -3 -5 -10 -42 -15
-82 -6 -40 -17 -116 -25 -168 -9 -52 -19 -123 -24 -158 -4 -35 -13 -67 -21
-72 -9 -5 -11 -20 -7 -46 3 -22 1 -59 -4 -84 -6 -25 -14 -74 -19 -110 -16
-139 -32 -235 -41 -244 -5 -6 -9 -38 -9 -72 0 -40 -5 -68 -14 -76 -9 -10 -13
-37 -13 -83 1 -45 -3 -70 -11 -73 -8 -2 -12 -29 -12 -77 0 -49 -5 -78 -14 -87
-8 -9 -13 -39 -13 -86 0 -42 -5 -78 -12 -85 -6 -6 -11 -39 -11 -73 0 -41 -5
-68 -14 -77 -9 -9 -14 -34 -13 -74 1 -36 -4 -72 -12 -87 -12 -22 -12 -30 -1
-51 l13 -25 538 0 537 0 6 23 c3 12 6 41 6 65 0 26 5 45 13 48 10 3 13 27 13
85 -1 49 3 83 10 87 7 4 13 44 15 95 3 54 9 91 16 95 8 5 12 33 11 82 -1 49 2
75 10 78 8 2 12 31 12 83 0 58 4 81 14 85 10 4 13 27 12 91 -1 61 3 88 12 90
8 3 12 30 12 89 0 61 4 86 13 90 10 3 13 27 13 85 -1 49 3 83 10 87 7 4 12 38
12 82 1 52 5 78 15 85 10 7 14 33 13 93 -1 59 3 85 12 91 8 5 13 21 12 37 -1
16 -2 40 -1 54 l1 25 676 -3 c487 -2 673 -5 668 -13 -4 -6 0 -15 7 -20 10 -6
15 -35 18 -96 2 -49 8 -91 14 -95 7 -4 11 -37 10 -84 -1 -55 2 -81 13 -91 10
-10 14 -39 14 -97 0 -52 5 -87 13 -95 8 -8 12 -39 11 -89 -1 -52 3 -81 12 -90
9 -9 14 -38 14 -86 0 -41 5 -77 12 -84 7 -7 11 -43 11 -89 -1 -45 4 -81 10
-85 6 -3 12 -46 15 -95 2 -48 9 -94 15 -102 6 -7 11 -48 11 -90 0 -42 5 -79
10 -83 6 -4 12 -44 14 -90 2 -46 8 -87 12 -93 4 -5 11 -37 15 -70 4 -33 12
-66 17 -72 8 -10 140 -13 598 -13 l587 0 6 82 c4 61 2 85 -8 92 -7 6 -15 44
-19 86 -4 41 -11 92 -17 114 -6 21 -8 61 -4 87 5 38 3 52 -9 65 -12 11 -16 35
-16 94 0 53 -4 80 -12 82 -9 3 -12 29 -12 84 1 47 -3 82 -10 86 -6 4 -12 44
-14 90 -2 46 -9 89 -16 97 -6 8 -10 45 -9 89 1 53 -3 79 -13 89 -9 10 -14 38
-14 87 0 39 -4 76 -10 82 -11 11 -29 140 -37 269 -3 50 -10 93 -16 97 -6 4
-10 38 -9 79 1 45 -3 76 -10 80 -6 4 -15 43 -19 86 -11 100 -27 216 -39 271
-6 23 -10 73 -10 111 0 47 -4 71 -12 74 -9 2 -13 29 -12 88 1 58 -3 88 -13 97
-8 9 -13 39 -13 86 0 43 -5 77 -12 84 -8 8 -12 41 -12 90 1 51 -4 81 -13 90
-8 9 -13 39 -13 86 0 40 -5 77 -11 83 -6 6 -11 46 -12 90 0 45 -5 81 -11 85
-6 4 -12 44 -14 90 -2 46 -9 89 -15 96 -5 7 -10 47 -9 89 0 56 -3 80 -15 91
-12 13 -14 30 -9 81 4 51 2 66 -10 75 -11 8 -15 32 -15 91 0 50 -5 82 -12 87
-8 5 -11 36 -11 90 2 61 -2 85 -12 93 -11 7 -15 34 -17 90 -1 44 -6 83 -12 87
-5 4 -9 42 -8 85 1 52 -2 80 -11 87 -16 14 -41 191 -38 274 1 45 -2 68 -13 79
-15 14 -21 63 -17 132 1 19 -4 38 -10 42 -8 5 -13 37 -13 91 0 55 -4 86 -13
93 -8 6 -13 38 -13 90 -1 49 -5 83 -12 87 -8 5 -12 37 -12 85 0 51 -4 81 -13
88 -8 6 -13 38 -13 90 -1 46 -6 83 -12 87 -6 4 -11 40 -11 87 0 45 -3 81 -7
81 -11 0 -20 53 -20 117 0 34 -5 61 -12 65 -8 5 -12 37 -11 92 1 63 -2 86 -12
90 -10 4 -14 27 -14 85 0 52 -4 81 -12 83 -8 3 -12 32 -12 89 0 56 -4 88 -13
97 -8 9 -13 39 -13 86 0 43 -5 77 -12 84 -8 8 -12 41 -11 89 1 53 -3 81 -13
90 -9 10 -14 38 -14 87 0 39 -5 77 -11 83 -6 6 -11 44 -12 84 0 41 -4 77 -9
80 -5 3 -13 41 -18 85 -5 43 -13 102 -19 129 -5 28 -7 70 -4 94 4 29 2 46 -7
51 -9 6 -26 95 -30 163 0 4 -407 7 -904 7 l-903 0 -16 -42z m823 -1357 c0 -46
4 -71 12 -73 8 -3 12 -30 12 -84 0 -51 5 -84 13 -92 8 -9 13 -41 13 -91 0 -47
5 -82 12 -89 8 -8 12 -41 11 -90 0 -46 3 -80 10 -84 6 -3 14 -44 18 -90 4 -46
12 -105 19 -133 6 -27 8 -67 5 -88 -4 -27 -1 -43 10 -53 11 -11 15 -37 15 -94
0 -49 4 -80 11 -82 7 -2 12 -35 12 -88 0 -56 5 -89 14 -98 8 -9 13 -39 13 -86
0 -39 5 -77 11 -83 6 -6 11 -45 11 -88 0 -46 6 -88 14 -103 8 -15 14 -53 14
-84 0 -31 5 -69 11 -85 6 -15 11 -62 12 -103 1 -50 6 -80 15 -90 11 -11 13
-32 9 -89 -5 -60 -3 -77 10 -86 11 -9 15 -31 15 -91 0 -48 5 -82 12 -86 7 -5
11 -38 10 -92 -1 -64 2 -86 12 -90 10 -4 14 -27 14 -85 0 -55 4 -81 13 -84 8
-2 12 -31 12 -98 -1 -68 3 -97 13 -105 9 -7 14 -34 15 -85 0 -40 5 -77 11 -81
7 -5 10 -42 10 -93 -2 -67 1 -85 12 -85 17 0 18 -32 2 -48 -18 -18 -941 -17
-956 1 -13 16 -3 107 12 107 8 0 12 25 11 80 0 50 4 83 11 88 7 4 12 37 11 84
0 42 4 83 10 90 6 7 13 48 15 91 2 43 8 81 14 85 6 4 11 43 12 91 0 46 5 87
10 90 5 3 11 41 14 84 2 43 8 81 14 85 6 4 11 40 11 85 0 46 4 82 11 89 7 7
12 43 12 84 0 47 5 77 13 86 9 9 13 41 13 97 0 57 4 86 12 89 8 2 12 29 12 77
0 48 5 78 13 87 9 9 14 39 13 90 0 49 4 82 12 90 7 7 12 41 12 84 0 47 5 77
13 86 9 9 13 41 13 97 0 57 4 86 12 89 8 2 12 29 12 77 0 48 5 78 13 87 9 9
14 39 13 90 0 49 4 82 12 90 7 7 12 41 12 84 0 47 5 77 13 86 9 9 13 40 13 97
-1 59 3 86 12 89 8 2 12 27 12 77 0 49 5 78 14 87 9 9 13 38 12 91 -1 55 3 80
12 86 9 5 13 23 12 47 -6 84 0 124 15 124 12 0 15 -14 15 -69z"/>
<path d="M28280 10804 c0 -3747 1 -3947 18 -3960 14 -11 129 -13 588 -14 512
0 572 2 578 16 3 9 6 788 7 1732 0 944 2 1713 5 1707 3 -7 219 -9 630 -7 536
2 627 0 640 -12 12 -13 14 -239 14 -1703 0 -928 3 -1698 6 -1710 l6 -23 592 0
c447 0 595 3 604 12 9 9 12 898 12 3939 0 3481 -2 3928 -15 3933 -8 3 -15 12
-15 21 0 13 -67 15 -589 15 l-588 0 -7 -31 c-3 -17 -6 -693 -6 -1501 0 -1362
-1 -1471 -17 -1486 -15 -16 -69 -17 -623 -17 -481 0 -610 3 -622 13 -13 10
-17 10 -21 0 -3 -7 -6 670 -6 1505 l-1 1517 -595 0 -595 0 0 -3946z"/>
<path d="M33725 14694 c-3 -30 -12 -57 -19 -60 -9 -3 -12 -29 -12 -86 1 -57
-3 -83 -11 -85 -9 -3 -13 -27 -13 -74 0 -51 -4 -71 -14 -75 -11 -4 -14 -23
-13 -72 1 -91 -23 -252 -38 -252 -8 0 -12 -22 -11 -67 0 -75 -23 -245 -35
-253 -4 -3 -9 -37 -12 -75 -7 -97 -25 -216 -37 -240 -5 -11 -11 -49 -13 -85
-7 -96 -27 -224 -38 -234 -5 -6 -9 -38 -9 -72 0 -38 -5 -68 -13 -76 -8 -8 -13
-42 -14 -93 0 -48 -5 -81 -12 -83 -7 -2 -11 -31 -11 -73 0 -49 -4 -71 -13 -75
-10 -3 -14 -27 -14 -81 0 -50 -4 -78 -11 -81 -8 -2 -12 -30 -12 -78 0 -56 -4
-76 -14 -80 -11 -4 -14 -22 -13 -67 1 -72 -26 -246 -40 -256 -6 -3 -10 -31 -9
-61 1 -76 -25 -233 -40 -246 -9 -7 -13 -32 -12 -70 2 -83 -22 -236 -40 -251
-11 -9 -13 -23 -8 -55 4 -25 0 -76 -9 -121 -8 -43 -15 -94 -15 -113 0 -20 -6
-37 -14 -40 -10 -4 -13 -24 -12 -75 1 -50 -3 -72 -13 -78 -9 -6 -12 -19 -8
-37 3 -16 1 -54 -5 -84 -5 -30 -13 -86 -18 -124 -4 -38 -12 -71 -17 -75 -6 -3
-10 -37 -11 -76 0 -48 -5 -72 -15 -80 -10 -7 -14 -31 -13 -89 1 -55 -3 -81
-11 -83 -9 -3 -13 -27 -13 -74 0 -52 -4 -71 -15 -75 -11 -5 -14 -23 -12 -80 1
-53 -2 -77 -11 -83 -9 -5 -13 -23 -11 -47 5 -77 0 -114 -16 -114 -13 0 -14
-11 -9 -68 5 -53 3 -71 -8 -83 -10 -9 -15 -37 -16 -83 0 -38 -5 -73 -11 -79
-6 -6 -11 -41 -11 -78 0 -44 -5 -72 -14 -81 -9 -10 -13 -37 -13 -83 1 -45 -3
-70 -11 -73 -8 -2 -12 -30 -12 -78 0 -54 -4 -76 -14 -80 -10 -4 -14 -25 -13
-80 0 -44 -5 -80 -11 -86 -7 -7 -12 -40 -12 -74 0 -44 -5 -67 -16 -79 -12 -12
-15 -27 -11 -58 3 -23 1 -62 -4 -87 -6 -24 -14 -76 -19 -114 -5 -38 -14 -72
-21 -76 -7 -5 -9 -20 -5 -43 4 -19 2 -55 -5 -79 -6 -23 -12 -63 -15 -88 -7
-77 -14 -110 -26 -110 -6 0 -8 -15 -4 -42 3 -24 1 -61 -5 -83 -11 -39 -18 -83
-39 -255 -5 -47 -14 -86 -20 -88 -5 -2 -10 -34 -10 -72 0 -46 -5 -73 -14 -83
-10 -9 -14 -36 -13 -87 1 -49 -3 -75 -11 -78 -8 -2 -12 -30 -12 -82 0 -43 -4
-82 -10 -85 -5 -3 -10 -37 -10 -76 l0 -69 533 0 534 0 13 25 c7 14 17 25 22
25 5 0 6 22 2 48 -4 31 0 70 10 111 9 34 16 87 16 116 0 30 6 59 13 67 8 8 13
44 14 96 0 47 5 88 12 95 6 6 11 41 11 78 0 42 5 73 13 81 8 8 13 39 13 85 0
44 5 78 12 85 7 7 12 42 12 89 0 50 5 82 13 91 8 8 13 42 12 95 0 52 5 87 13
95 7 7 12 40 12 85 0 57 3 75 16 80 12 4 14 16 9 57 -4 32 0 79 9 124 9 40 16
91 16 112 0 21 7 45 15 53 8 8 11 17 8 21 -4 3 296 6 665 6 500 0 673 -3 678
-12 4 -6 8 -32 9 -57 1 -25 6 -55 11 -66 5 -11 9 -57 8 -102 -1 -60 3 -83 13
-87 9 -4 13 -27 13 -84 0 -48 5 -83 12 -90 8 -8 12 -41 12 -90 -1 -51 4 -81
13 -90 9 -9 13 -40 13 -92 0 -54 4 -80 13 -82 8 -3 12 -32 12 -96 0 -64 4 -93
13 -97 8 -3 12 -30 12 -89 0 -58 4 -86 12 -88 9 -3 13 -30 12 -89 0 -57 4 -88
13 -97 8 -9 13 -39 13 -87 0 -40 4 -75 10 -77 5 -1 12 -39 16 -83 3 -44 12
-99 21 -122 l15 -43 587 0 c443 0 590 3 599 12 15 15 16 65 0 70 -7 3 -12 33
-12 89 0 54 -5 89 -13 97 -8 8 -13 41 -13 87 0 50 -4 75 -12 77 -9 3 -13 30
-12 89 0 57 -4 88 -13 97 -8 9 -13 39 -13 86 0 41 -5 77 -12 84 -7 7 -11 43
-11 89 0 45 -5 81 -11 85 -6 4 -12 44 -14 90 -2 46 -9 89 -15 96 -5 7 -10 45
-10 85 0 42 -4 75 -11 79 -6 4 -12 44 -14 90 -2 46 -9 89 -15 97 -6 7 -11 46
-10 88 1 54 -2 80 -13 90 -9 10 -14 37 -14 87 0 39 -5 77 -10 82 -6 6 -11 44
-11 85 0 46 -5 76 -12 81 -7 4 -13 42 -16 95 -1 48 -8 94 -14 101 -5 7 -10 48
-11 90 0 42 -5 80 -11 84 -5 4 -10 42 -10 85 0 51 -4 82 -13 88 -7 6 -14 40
-16 80 -2 39 -7 79 -12 90 -5 11 -9 56 -8 100 0 59 -4 83 -14 91 -11 8 -15 32
-15 85 0 44 -4 77 -11 81 -7 5 -10 39 -10 93 2 67 -1 85 -12 85 -14 0 -20 52
-15 129 2 20 -3 37 -11 42 -9 6 -13 32 -13 91 1 58 -3 86 -12 93 -9 7 -14 35
-14 83 -1 44 -7 85 -16 103 -11 23 -14 46 -9 91 6 49 4 62 -9 71 -12 9 -16 31
-16 87 -1 43 -6 78 -12 82 -6 4 -11 40 -11 90 0 55 -4 87 -13 96 -8 9 -13 39
-13 86 0 43 -5 77 -12 84 -8 8 -12 41 -12 90 1 45 -3 80 -10 84 -6 4 -12 42
-14 85 -2 43 -9 84 -15 92 -7 8 -11 47 -11 94 1 57 -3 85 -12 95 -9 9 -14 38
-14 86 0 43 -5 77 -12 84 -8 8 -12 41 -11 92 1 44 -2 80 -7 80 -5 0 -11 15
-14 33 -3 17 -12 81 -21 140 -9 59 -14 125 -10 146 5 30 3 40 -9 44 -13 5 -16
22 -16 80 0 43 -5 78 -12 85 -7 7 -12 45 -12 94 0 53 -5 88 -13 96 -8 9 -13
42 -13 91 0 47 -5 82 -12 89 -7 7 -12 41 -12 85 0 46 -5 77 -13 85 -8 9 -13
40 -13 86 0 40 -5 77 -11 83 -7 7 -12 46 -12 94 0 57 -4 87 -13 97 -9 9 -14
38 -14 86 0 41 -5 77 -12 84 -7 7 -11 42 -11 88 1 54 -4 82 -13 92 -9 9 -14
37 -14 86 0 41 -5 77 -12 84 -7 7 -11 43 -11 89 1 48 -4 81 -11 85 -7 5 -11
37 -10 85 0 52 -4 82 -13 91 -13 13 -16 48 -13 130 1 24 -3 42 -9 42 -6 0 -14
18 -17 40 l-7 40 -907 0 -908 0 -7 -56z m834 -1326 c6 -37 8 -91 5 -121 -5
-44 -4 -55 10 -60 13 -5 16 -22 16 -86 0 -52 4 -81 12 -83 8 -3 11 -32 11 -89
0 -46 4 -87 9 -90 14 -9 42 -212 41 -296 -1 -53 2 -73 13 -77 10 -4 14 -25 14
-85 0 -53 4 -81 12 -83 8 -3 12 -32 11 -93 0 -62 4 -93 13 -103 9 -9 14 -38
14 -86 0 -41 5 -77 12 -84 7 -7 11 -42 11 -88 -1 -54 4 -82 13 -92 10 -9 14
-39 14 -96 0 -52 5 -87 13 -95 7 -7 12 -40 11 -89 0 -50 4 -82 13 -90 8 -9 13
-40 13 -87 0 -46 4 -75 11 -77 7 -2 12 -35 12 -88 0 -47 5 -88 10 -91 5 -4 13
-42 18 -85 5 -44 13 -100 18 -127 4 -26 6 -68 3 -93 -3 -33 -1 -49 9 -55 10
-6 15 -35 18 -96 1 -48 8 -94 13 -100 6 -7 11 -48 11 -90 1 -53 6 -83 15 -92
11 -11 13 -33 9 -85 -3 -51 -1 -73 8 -81 8 -6 15 -37 17 -75 l3 -65 -480 0
-480 0 -3 23 c-2 12 0 22 5 22 5 0 8 37 8 82 0 56 4 83 13 86 8 2 12 29 12 83
0 56 4 81 13 85 9 3 13 28 12 85 0 44 5 83 10 87 6 4 11 41 12 82 2 49 7 78
16 85 9 7 13 34 13 93 -1 60 3 85 13 91 9 6 12 19 8 39 -9 44 3 132 18 132 9
0 12 22 12 78 -1 82 18 244 33 277 5 11 10 53 12 93 2 40 8 76 14 80 5 4 10
42 11 85 0 44 6 84 12 90 6 6 11 41 11 78 0 43 5 72 13 81 9 9 14 40 14 91 0
46 4 82 11 89 7 7 12 44 12 89 0 48 5 83 13 91 7 8 12 44 13 92 1 43 6 81 12
85 6 3 12 42 15 86 6 108 26 255 38 276 5 10 9 47 9 83 0 38 5 70 13 78 7 8
12 43 12 91 1 46 5 81 12 85 6 4 14 45 17 92 14 206 23 228 45 108z"/>
<path d="M5127 14724 c-3 -4 -32 -8 -64 -10 -32 -2 -70 -6 -85 -9 -16 -2 -28
-1 -28 4 0 12 -94 0 -102 -13 -4 -7 -35 -10 -79 -9 -51 2 -75 -2 -86 -12 -9
-10 -34 -15 -69 -15 -36 0 -61 -5 -70 -15 -11 -10 -27 -13 -58 -9 -34 5 -44 3
-49 -10 -4 -11 -19 -16 -44 -16 -21 0 -46 -7 -56 -15 -12 -8 -31 -11 -53 -8
-26 4 -34 2 -34 -9 0 -10 -12 -15 -37 -16 -21 -1 -39 -6 -41 -12 -2 -5 -19
-10 -37 -10 -18 0 -35 -6 -38 -13 -2 -7 -17 -13 -33 -15 -15 -1 -31 -8 -36
-14 -4 -7 -20 -11 -36 -10 -20 2 -31 -2 -35 -12 -4 -9 -18 -16 -32 -16 -14 0
-25 -4 -25 -9 0 -5 -12 -8 -26 -8 -15 0 -30 -6 -34 -13 -4 -6 -9 -11 -11 -11
-13 2 -49 -13 -49 -20 0 -5 -13 -9 -30 -9 -18 0 -30 -5 -30 -13 0 -7 -10 -14
-22 -14 -13 -1 -24 -7 -26 -13 -2 -5 -15 -10 -28 -10 -13 0 -24 -6 -24 -13 0
-7 -10 -14 -22 -14 -13 -1 -24 -7 -26 -13 -2 -5 -12 -10 -23 -10 -11 0 -22 -7
-26 -16 -3 -8 -12 -13 -19 -10 -7 3 -20 -1 -28 -9 -8 -8 -19 -15 -25 -15 -6 0
-11 -3 -11 -7 0 -11 -58 -43 -76 -43 -8 0 -14 -6 -14 -13 0 -7 -16 -19 -35
-26 -19 -7 -49 -25 -66 -41 -17 -15 -43 -34 -57 -41 -15 -8 -29 -16 -32 -19
-13 -14 -66 -44 -73 -42 -11 3 -37 -24 -37 -37 0 -6 -4 -11 -10 -11 -5 0 -19
-8 -29 -17 -11 -9 -28 -18 -37 -19 -10 -2 -22 -11 -27 -20 -19 -33 -82 -84
-104 -84 -14 0 -23 -6 -23 -15 0 -8 -4 -15 -10 -15 -5 0 -10 -4 -10 -9 0 -5
-30 -38 -67 -72 -38 -35 -118 -114 -179 -176 -61 -62 -116 -113 -123 -113 -6
0 -11 -6 -11 -13 0 -19 -72 -114 -97 -128 -12 -6 -26 -24 -31 -38 -5 -14 -25
-44 -43 -67 -65 -78 -200 -282 -239 -359 -36 -73 -64 -120 -72 -123 -4 -2 -8
-12 -8 -22 0 -10 -4 -22 -10 -25 -5 -3 -17 -23 -26 -43 -9 -20 -34 -75 -56
-122 -41 -87 -53 -116 -70 -160 -6 -14 -16 -38 -24 -53 -8 -16 -14 -35 -14
-43 0 -8 -4 -22 -9 -32 -21 -42 -41 -94 -41 -107 0 -9 -4 -23 -9 -33 -12 -24
-41 -125 -41 -145 0 -9 -7 -20 -16 -25 -12 -7 -15 -18 -11 -38 3 -16 -1 -42
-8 -59 -7 -16 -16 -46 -18 -65 -13 -93 -30 -176 -38 -184 -5 -6 -9 -40 -9 -77
0 -41 -5 -73 -13 -81 -8 -9 -13 -51 -13 -128 -1 -76 -5 -115 -13 -118 -8 -3
-11 -79 -11 -278 1 -151 5 -272 9 -269 12 7 21 -104 14 -165 -4 -39 -2 -54 8
-60 9 -6 15 -35 17 -87 3 -43 8 -80 12 -83 8 -5 28 -111 37 -195 3 -27 10 -53
16 -57 6 -3 10 -26 9 -51 -2 -32 2 -47 13 -51 9 -3 15 -18 15 -41 0 -19 5 -35
10 -35 6 0 10 -7 10 -15 0 -28 83 -263 147 -415 16 -38 144 -294 200 -400 18
-36 38 -66 43 -68 6 -2 10 -8 10 -13 0 -5 16 -32 35 -60 19 -28 35 -57 35 -65
0 -8 5 -14 10 -14 6 0 16 -12 22 -26 7 -15 25 -40 40 -56 15 -17 28 -36 28
-44 0 -8 4 -14 8 -14 13 0 72 -86 72 -104 0 -9 6 -16 14 -16 8 0 31 -22 52
-50 21 -27 42 -50 46 -50 4 0 8 -5 8 -11 0 -5 83 -94 184 -196 102 -102 193
-196 203 -209 10 -13 24 -24 32 -24 21 0 81 -49 81 -66 0 -7 6 -14 14 -14 8 0
16 -5 18 -11 2 -5 10 -11 18 -12 19 -3 80 -48 80 -60 0 -14 29 -39 39 -32 6 3
45 -19 87 -50 42 -30 81 -55 85 -55 5 0 9 -6 9 -13 0 -8 18 -19 39 -26 21 -6
42 -18 45 -26 3 -8 14 -15 24 -15 11 0 30 -8 43 -18 13 -10 32 -21 42 -25 9
-3 17 -11 17 -17 0 -5 9 -10 19 -10 11 0 23 -4 26 -10 3 -6 15 -10 26 -10 11
0 22 -7 25 -15 4 -8 12 -15 20 -15 8 0 22 -4 32 -9 9 -5 33 -17 52 -25 19 -9
42 -20 50 -25 45 -24 61 -31 74 -31 8 0 19 -6 23 -12 13 -21 53 -40 53 -26 0
9 3 9 12 0 7 -7 20 -12 29 -12 10 0 25 -7 33 -16 9 -8 26 -17 38 -18 13 -2 30
-6 38 -9 8 -2 35 -12 60 -21 25 -9 53 -16 63 -16 9 0 17 -7 17 -15 0 -14 30
-21 68 -16 6 1 12 -3 12 -9 0 -5 18 -10 40 -10 27 0 43 -5 46 -15 4 -10 21
-15 54 -15 27 0 52 -4 55 -10 3 -5 26 -10 51 -10 31 0 46 -5 50 -15 5 -12 20
-15 65 -13 36 1 64 -3 71 -10 7 -7 39 -12 74 -12 39 0 68 -5 76 -14 16 -16
118 -28 118 -13 0 6 20 7 53 2 92 -12 587 -14 666 -2 52 8 76 8 78 1 5 -16
106 -4 116 12 5 10 29 14 75 14 41 0 73 5 80 12 8 8 36 12 72 11 40 -1 60 3
64 12 3 8 22 13 51 13 25 0 53 6 61 13 9 7 33 12 54 10 26 -2 39 2 43 13 4 11
19 16 42 16 20 0 43 7 52 16 10 10 25 13 44 9 24 -5 29 -3 29 12 0 14 2 15 9
4 6 -9 11 -10 15 -2 4 6 18 11 32 11 13 0 24 4 24 10 0 5 12 13 28 16 15 4 31
9 37 12 5 3 20 7 33 8 13 2 31 9 39 16 9 7 24 12 35 10 10 -2 25 4 34 12 8 9
24 16 34 16 10 0 20 7 24 15 3 9 12 12 22 8 9 -3 20 0 24 7 5 8 19 15 32 17
13 2 25 8 26 13 2 6 15 10 28 10 16 0 24 6 24 18 0 12 3 13 8 4 6 -9 13 -8 28
5 10 10 28 20 39 21 11 2 22 7 25 12 3 4 15 10 28 14 12 4 22 11 22 14 0 4 17
16 38 27 20 10 45 25 54 33 10 8 25 11 37 7 13 -4 21 -2 21 5 0 12 24 40 35
40 3 0 21 10 38 23 18 12 39 23 47 25 8 2 18 10 23 17 4 7 23 19 42 25 19 6
35 17 35 24 0 14 54 48 63 40 7 -7 37 20 37 33 0 5 17 19 38 31 20 11 60 42
87 67 28 26 67 56 88 68 20 11 37 24 37 27 0 4 92 99 205 213 113 113 205 209
205 212 0 4 20 30 44 58 59 70 138 176 155 210 8 15 18 27 22 27 4 0 18 18 30
40 13 22 26 40 31 40 4 0 8 4 8 9 0 9 88 161 107 186 5 6 17 28 28 50 11 22
23 42 26 45 3 3 20 34 37 70 17 36 36 72 41 80 5 8 13 26 19 40 5 14 22 51 36
83 14 32 26 62 26 67 0 6 4 18 10 28 17 31 80 199 86 231 4 17 11 34 15 37 5
3 9 18 9 34 0 16 4 31 9 34 5 4 12 25 16 48 4 23 11 49 15 58 10 18 40 151 40
174 0 9 6 19 14 22 11 4 14 21 13 61 -1 38 2 58 11 60 8 3 12 28 12 79 0 53 4
76 13 80 10 4 13 32 13 113 -1 71 3 113 11 123 17 19 18 585 1 605 -6 8 -11
60 -12 126 0 77 -5 115 -14 122 -7 6 -13 36 -13 80 -1 39 -6 73 -11 76 -5 4
-13 33 -18 65 -4 33 -17 95 -29 138 -11 44 -21 88 -21 98 0 10 -4 26 -9 36
-13 24 -41 117 -41 137 0 8 -4 23 -9 33 -22 44 -41 94 -41 110 0 10 -4 22 -8
28 -5 5 -17 32 -26 59 -19 54 -27 73 -76 180 -18 39 -39 88 -46 110 -8 21 -18
42 -23 45 -4 3 -22 34 -40 70 -17 36 -37 74 -44 85 -59 96 -77 126 -77 131 0
3 -11 20 -25 38 -14 18 -25 36 -25 40 0 4 -11 22 -25 40 -14 18 -25 38 -25 44
0 6 -4 12 -9 14 -14 5 -121 158 -121 173 0 7 -8 16 -19 20 -10 3 -29 21 -42
39 -43 60 -151 179 -291 318 -76 76 -138 142 -138 148 0 5 -5 10 -11 10 -14 0
-39 25 -39 39 0 6 -6 11 -14 11 -8 0 -16 5 -18 11 -2 5 -10 11 -18 12 -22 4
-80 49 -80 63 0 6 -11 15 -24 18 -13 3 -44 24 -67 46 -24 22 -48 40 -54 40 -6
0 -26 12 -45 28 -19 15 -47 34 -62 41 -16 8 -28 18 -28 23 0 4 -15 15 -32 23
-52 25 -77 40 -95 61 -10 11 -29 21 -42 21 -13 1 -27 6 -30 11 -3 5 -16 12
-28 16 -13 4 -23 12 -23 17 0 5 -9 9 -20 9 -11 0 -20 7 -20 15 0 8 -9 15 -20
15 -12 0 -31 9 -42 20 -17 15 -24 17 -30 8 -5 -9 -8 -8 -8 5 0 15 -11 20 -36
16 -4 0 -10 4 -14 11 -4 6 -17 12 -28 13 -12 1 -22 7 -22 14 0 8 -12 13 -30
13 -16 0 -30 5 -30 10 0 6 -11 10 -25 10 -16 0 -25 6 -25 15 0 13 -25 21 -52
16 -5 0 -8 3 -8 9 0 5 -13 10 -30 10 -16 0 -33 7 -38 16 -5 8 -23 16 -41 16
-17 1 -34 5 -37 10 -3 4 -16 8 -30 8 -15 0 -24 6 -24 16 0 13 -7 15 -30 11
-19 -4 -34 -1 -44 8 -8 8 -28 15 -45 15 -17 0 -34 7 -39 17 -7 12 -18 14 -40
10 -21 -4 -36 -2 -46 8 -8 9 -33 16 -56 18 -23 2 -45 8 -49 15 -4 7 -26 12
-55 10 -26 0 -51 4 -55 10 -3 6 -33 11 -66 11 -44 0 -62 4 -72 17 -10 14 -22
16 -72 11 -46 -5 -63 -3 -75 8 -8 8 -33 15 -54 15 -23 0 -43 5 -45 13 -4 9 -8
8 -16 -3 -7 -10 -24 -13 -58 -11 -26 2 -60 4 -75 5 -15 1 -30 5 -34 9 -9 9
-448 10 -457 1z m563 -458 c14 -3 63 -10 110 -16 89 -11 324 -55 375 -70 17
-5 50 -14 75 -21 302 -80 609 -216 930 -411 88 -54 273 -192 393 -294 287
-242 529 -532 741 -887 38 -64 154 -296 186 -372 4 -11 15 -36 23 -55 26 -60
84 -231 112 -325 42 -148 59 -217 79 -325 46 -255 50 -309 50 -625 0 -316 -5
-382 -50 -625 -81 -441 -289 -948 -520 -1273 -19 -26 -34 -51 -34 -56 0 -5 -3
-11 -8 -13 -4 -1 -25 -28 -47 -57 -231 -318 -548 -617 -897 -847 -54 -35 -101
-64 -104 -64 -4 0 -15 -6 -23 -14 -28 -25 -272 -147 -406 -203 -210 -88 -418
-154 -615 -194 -165 -33 -194 -39 -240 -44 -25 -2 -90 -9 -145 -16 -108 -12
-514 -15 -611 -5 -327 36 -560 86 -814 173 -262 90 -488 200 -774 378 -33 20
-197 139 -231 166 -293 240 -503 462 -691 729 -241 342 -400 689 -524 1140
-18 65 -59 284 -76 410 -27 196 -24 667 5 855 36 227 40 247 55 310 117 490
318 917 616 1310 123 161 181 228 335 379 277 274 662 537 990 676 55 23 114
48 130 55 49 21 215 81 280 100 33 10 71 21 85 26 14 4 57 15 95 24 39 8 79
18 90 20 87 22 379 63 480 69 85 4 540 -2 575 -8z"/>
<path d="M5314 14102 c-16 -11 -29 -38 -62 -137 -17 -49 -47 -135 -67 -190
-20 -55 -47 -131 -60 -170 -13 -38 -42 -122 -65 -185 -52 -142 -65 -190 -57
-222 4 -14 33 -52 65 -84 79 -80 96 -119 95 -219 0 -99 -20 -140 -104 -222
-59 -57 -151 -178 -183 -240 -8 -17 -27 -67 -42 -110 -23 -71 -26 -97 -31
-278 -2 -110 -6 -206 -8 -213 -3 -8 -26 1 -70 28 -36 22 -67 40 -70 40 -2 0
-57 32 -121 70 -65 39 -119 70 -121 70 -1 0 -32 18 -68 40 -36 22 -67 40 -69
40 -2 0 -50 27 -106 61 -57 33 -157 91 -224 128 -66 38 -182 104 -256 148 -75
44 -142 82 -150 86 -8 4 -33 18 -55 32 -81 51 -103 59 -120 45 -8 -7 -15 -16
-15 -21 0 -5 -18 -38 -40 -74 -22 -36 -40 -67 -40 -70 0 -3 -16 -29 -35 -59
-19 -30 -35 -59 -35 -64 0 -13 20 -25 218 -139 92 -53 223 -128 292 -168 307
-177 459 -265 505 -291 27 -15 73 -42 102 -61 29 -18 54 -33 56 -33 3 0 71
-39 153 -86 82 -47 163 -94 179 -103 17 -9 45 -26 63 -39 l32 -23 0 -103 0
-103 -40 -27 c-22 -14 -42 -26 -45 -26 -3 0 -23 -11 -45 -25 -22 -14 -46 -25
-53 -25 -14 0 -185 93 -264 143 -24 15 -44 27 -46 27 -3 0 -257 146 -506 292
-41 23 -97 56 -125 71 -28 16 -72 42 -99 58 -26 16 -49 29 -52 29 -3 0 -29 16
-59 35 -30 19 -57 35 -60 35 -3 0 -27 13 -53 28 -208 124 -335 193 -348 188
-9 -3 -18 -13 -22 -23 -4 -10 -40 -73 -80 -141 -40 -68 -73 -129 -73 -135 0
-7 58 -43 127 -82 70 -38 162 -91 205 -117 44 -27 81 -48 83 -48 2 0 49 -27
105 -60 56 -33 103 -60 104 -60 1 0 50 -28 109 -62 58 -35 141 -83 184 -108
43 -25 105 -61 139 -80 33 -19 127 -73 208 -119 119 -68 145 -86 134 -97 -7
-6 -62 -40 -123 -75 -193 -110 -241 -148 -332 -265 -50 -63 -99 -170 -128
-274 -14 -52 -33 -110 -43 -129 -39 -76 -163 -151 -251 -151 -21 0 -66 9 -101
21 -94 31 -116 23 -190 -64 -34 -40 -86 -99 -114 -132 -29 -33 -106 -123 -171
-200 -66 -77 -129 -151 -141 -165 -88 -99 -104 -122 -104 -154 0 -19 7 -39 15
-46 25 -21 54 -18 330 36 138 27 327 62 400 75 187 32 197 35 226 64 18 17 29
39 29 55 0 71 64 180 132 225 21 14 67 33 102 42 62 17 65 16 142 -6 92 -27
232 -49 289 -45 167 13 244 37 411 130 65 37 131 75 146 85 14 11 31 19 37 19
8 0 11 -231 11 -815 0 -448 3 -815 8 -816 37 -6 344 -4 347 1 3 4 5 420 5 924
l1 917 52 33 c29 18 71 43 94 56 48 26 49 26 148 -35 28 -17 58 -34 67 -38 17
-6 18 -61 17 -928 0 -676 3 -924 12 -929 8 -6 299 -6 342 -1 4 1 7 368 7 816
0 547 3 815 10 815 6 0 29 -12 53 -27 278 -176 436 -223 665 -199 40 4 100 16
133 27 85 28 135 31 196 12 82 -26 143 -77 180 -153 18 -36 33 -77 33 -92 0
-37 29 -83 59 -95 14 -6 69 -18 121 -28 52 -9 111 -20 130 -25 19 -5 58 -12
85 -15 28 -4 64 -11 80 -15 17 -5 64 -14 105 -21 41 -6 102 -17 135 -24 87
-19 208 -40 223 -39 6 1 19 2 27 3 22 2 47 46 40 72 -3 13 -36 58 -72 99 -36
41 -89 102 -117 136 -28 33 -91 108 -141 165 -49 57 -123 144 -164 192 -116
138 -128 143 -231 107 -66 -23 -123 -25 -178 -6 -102 36 -169 106 -198 205
-37 127 -58 189 -82 236 -41 82 -118 176 -192 236 -47 38 -315 199 -331 199
-5 0 -9 3 -9 8 0 8 12 16 80 54 55 30 431 247 480 277 19 11 42 24 50 28 8 3
39 21 68 40 29 18 54 33 56 33 3 0 81 44 174 98 93 54 175 102 183 106 8 4 23
12 35 19 11 7 78 45 148 86 70 41 130 81 133 88 4 10 -62 131 -154 281 -18 30
-33 28 -95 -12 -29 -18 -145 -86 -258 -151 -113 -65 -277 -159 -365 -210 -88
-51 -263 -152 -390 -225 -126 -73 -270 -156 -320 -185 -143 -83 -185 -105
-200 -105 -14 0 -135 71 -167 98 -27 23 -26 201 0 225 10 10 21 17 24 17 4 0
53 27 110 61 57 34 121 71 143 84 81 46 304 175 448 259 82 47 150 86 151 86
2 0 66 37 142 81 76 45 153 90 169 99 17 10 109 62 205 117 96 55 179 107 184
115 8 14 -22 75 -104 208 -5 8 -17 29 -26 47 -29 59 -39 61 -107 23 -34 -18
-97 -55 -139 -82 -43 -26 -79 -48 -81 -48 -5 0 -162 -90 -214 -123 -24 -15
-45 -27 -48 -27 -3 0 -22 -11 -43 -23 -20 -13 -58 -35 -83 -49 -70 -39 -564
-325 -654 -378 -44 -26 -83 -46 -87 -43 -4 2 -8 76 -7 163 0 184 -6 240 -32
329 -37 124 -90 209 -210 336 -98 104 -122 153 -122 245 0 87 34 162 100 219
25 23 51 56 58 78 13 39 8 57 -120 413 -15 41 -30 86 -35 100 -4 14 -27 77
-50 140 -23 63 -48 135 -57 160 -29 85 -40 100 -76 100 -17 0 -37 -4 -43 -8z
m128 -1794 c21 -10 50 -37 65 -60 l28 -42 0 -299 0 -300 -88 -53 c-48 -30 -91
-54 -94 -54 -3 0 -45 23 -94 51 -62 36 -91 59 -95 75 -3 13 -4 146 -2 296 4
303 5 307 73 366 19 18 48 34 63 38 15 3 32 7 37 9 18 5 69 -8 107 -27z m2
-1249 c134 -75 126 -63 126 -199 l0 -118 -62 -39 c-35 -21 -84 -49 -110 -63
-52 -27 -40 -31 -178 48 l-85 48 0 114 c-1 63 3 123 7 132 5 9 30 28 56 41 26
13 69 38 96 55 28 18 52 32 54 32 2 0 45 -23 96 -51z m-734 -463 l85 -52 3
-107 3 -106 -40 -26 c-23 -14 -43 -25 -46 -25 -3 0 -22 -11 -43 -24 -134 -84
-357 -207 -395 -218 -84 -22 -171 24 -208 110 -24 55 -24 96 0 147 22 47 49
74 111 108 25 14 131 75 235 135 105 61 195 111 200 111 6 0 48 -24 95 -53z
m1454 13 c73 -43 304 -176 366 -211 103 -58 145 -158 106 -251 -26 -62 -111
-117 -183 -117 -12 0 -55 17 -95 39 -128 67 -442 252 -450 264 -13 21 -9 203
5 214 6 6 39 25 72 42 33 18 67 39 75 47 20 20 25 19 104 -27z"/>
</g>
</svg>
