<?xml version="1.0" standalone="no"?>
<!DOCTYPE svg PUBLIC "-//W3C//DTD SVG 20010904//EN"
 "http://www.w3.org/TR/2001/REC-SVG-20010904/DTD/svg10.dtd">
<svg version="1.0" xmlns="http://www.w3.org/2000/svg"
 width="1200.000000pt" height="214.000000pt" viewBox="0 0 1200.000000 214.000000"
 preserveAspectRatio="xMidYMid meet">
<metadata>
Created by potrace 1.16, written by Peter Selinger 2001-2019
</metadata>
<g transform="translate(0.000000,214.000000) scale(0.100000,-0.100000)"
fill="#000000" stroke="none">
<path d="M950 1070 l0 -1070 115 0 115 0 0 1070 0 1070 -115 0 -115 0 0 -1070z"/>
<path d="M727 2090 c-169 -57 -295 -135 -418 -259 -95 -96 -150 -172 -209
-290 -45 -90 -88 -229 -97 -313 l-6 -58 317 0 316 0 0 -95 0 -95 -315 0 -315
0 0 -39 c0 -67 47 -229 98 -334 129 -269 353 -466 634 -558 136 -44 128 -50
128 89 l0 118 -57 18 c-142 45 -269 131 -376 255 -49 57 -109 151 -122 190
l-6 21 280 0 281 0 0 330 0 330 -280 0 c-154 0 -280 2 -280 5 0 12 45 93 80
145 43 63 153 171 220 217 62 42 135 77 203 99 l57 18 0 118 c0 140 7 135
-133 88z"/>
<path d="M1270 2001 l0 -119 35 -6 c56 -11 224 -101 293 -156 80 -66 161 -163
207 -251 l36 -69 -285 0 -286 0 0 -330 0 -330 285 0 285 0 -21 -43 c-100 -195
-292 -361 -491 -423 l-58 -18 0 -118 c0 -138 -8 -133 122 -92 164 52 290 127
420 252 167 161 275 360 313 579 8 47 15 90 15 94 0 5 -144 9 -320 9 l-320 0
0 95 0 95 320 0 320 0 -6 43 c-57 409 -350 757 -742 881 -130 41 -122 46 -122
-93z"/>
<path d="M2700 960 l0 -720 225 0 225 0 0 213 1 212 50 54 c40 42 53 51 59 40
5 -8 80 -126 168 -264 l159 -250 286 -3 c158 -1 287 1 287 5 0 5 -132 199
-294 432 l-294 424 271 279 c150 153 273 282 275 288 3 7 -90 10 -270 10
l-273 0 -212 -212 -213 -213 0 213 0 212 -225 0 -225 0 0 -720z"/>
<path d="M10370 960 l0 -720 215 0 215 0 0 148 c0 145 1 149 25 172 l24 23
112 -172 112 -171 244 0 c198 0 244 3 240 13 -3 7 -95 152 -206 321 -111 169
-201 311 -201 317 0 5 79 92 175 193 96 102 175 187 175 190 0 3 -112 6 -249
6 l-249 0 -99 -114 -98 -113 -3 313 -2 314 -215 0 -215 0 0 -720z"/>
<path d="M11600 1530 l0 -150 200 0 200 0 0 150 0 150 -200 0 -200 0 0 -150z"/>
<path d="M4476 1324 c-203 -40 -332 -165 -344 -334 l-5 -70 197 0 c191 0 196
1 196 20 0 29 23 70 55 100 23 21 36 25 91 25 56 0 67 -3 91 -27 23 -24 26
-31 17 -55 -14 -41 -56 -59 -199 -88 -350 -69 -467 -161 -469 -370 -1 -68 3
-88 27 -137 33 -67 80 -111 157 -147 51 -24 65 -26 190 -26 122 0 140 2 189
25 30 13 74 39 97 57 l43 32 26 -45 26 -44 210 0 209 0 -24 48 c-39 77 -47
145 -55 464 -10 346 -14 365 -88 449 -53 58 -133 102 -225 124 -80 19 -317 18
-412 -1z m321 -659 c-16 -110 -88 -185 -180 -185 -52 0 -107 44 -107 85 0 42
30 58 250 138 38 14 43 8 37 -38z"/>
<path d="M7295 1326 c-227 -52 -345 -173 -345 -353 l0 -53 195 0 195 0 0 28
c0 59 68 122 133 122 82 0 138 -45 116 -94 -17 -36 -61 -53 -226 -87 -193 -40
-281 -76 -354 -148 -64 -63 -89 -124 -89 -216 0 -91 25 -152 89 -216 49 -49
69 -61 130 -79 60 -19 89 -21 179 -18 121 5 192 27 263 82 l43 33 28 -44 28
-43 205 0 c113 0 205 2 205 5 0 3 -9 23 -20 45 -35 69 -41 121 -50 435 -10
342 -16 382 -73 457 -41 54 -108 99 -189 128 -54 20 -87 24 -233 26 -118 2
-188 -1 -230 -10z m315 -678 c-15 -72 -52 -125 -103 -149 -54 -24 -94 -24
-135 1 -54 33 -62 87 -17 116 36 23 260 103 263 93 2 -5 -1 -33 -8 -61z"/>
<path d="M9545 1324 c-211 -45 -336 -172 -339 -344 l-1 -55 192 -3 191 -2 7
32 c10 45 30 75 68 98 81 50 211 -4 183 -75 -10 -28 -68 -53 -174 -75 -186
-38 -225 -49 -309 -90 -132 -65 -184 -146 -184 -285 0 -123 50 -214 147 -267
72 -38 147 -52 261 -46 107 6 158 21 239 75 28 18 54 33 57 33 3 0 16 -18 28
-40 l23 -40 208 0 c114 0 208 2 208 4 0 3 -9 20 -20 39 -32 55 -50 160 -50
307 -1 74 -5 212 -9 307 -8 167 -9 174 -40 238 -26 53 -45 75 -93 111 -95 70
-163 87 -358 90 -119 2 -185 -1 -235 -12z m325 -643 c0 -152 -172 -258 -264
-162 -33 35 -32 66 5 93 25 19 222 97 247 98 7 0 12 -12 12 -29z"/>
<path d="M8433 1319 c-224 -38 -354 -178 -341 -368 13 -179 140 -268 450 -317
59 -9 121 -25 137 -35 40 -24 64 -63 56 -89 -16 -50 -140 -68 -203 -30 -37 23
-72 75 -72 108 l0 22 -196 0 -197 0 7 -61 c17 -170 126 -281 326 -336 98 -27
337 -24 444 5 134 37 217 97 263 190 24 49 28 68 27 142 -1 157 -52 246 -177
306 -67 32 -156 55 -335 88 -97 17 -132 36 -132 71 0 35 40 58 103 59 64 0
110 -28 128 -79 l13 -35 188 0 188 0 -6 43 c-25 176 -132 277 -332 313 -85 15
-258 16 -339 3z"/>
<path d="M5170 1273 c0 -5 79 -239 176 -521 l177 -512 215 2 216 3 65 237 c36
131 68 234 72 230 3 -4 39 -112 80 -239 l74 -233 207 0 206 0 16 48 c8 26 78
254 156 507 77 253 143 466 145 473 4 10 -39 12 -207 10 l-211 -3 -77 -230
c-51 -153 -79 -223 -83 -210 -3 11 -31 108 -62 215 -31 107 -59 203 -61 213
-5 16 -21 17 -192 15 l-187 -3 -69 -222 c-38 -123 -72 -223 -76 -223 -3 0 -25
64 -48 143 -24 78 -55 179 -69 225 l-25 82 -219 0 c-121 0 -219 -3 -219 -7z"/>
<path d="M11600 760 l0 -520 200 0 200 0 0 520 0 520 -200 0 -200 0 0 -520z"/>
</g>
</svg>
