<?xml version="1.0" standalone="no"?>
<!DOCTYPE svg PUBLIC "-//W3C//DTD SVG 20010904//EN"
 "http://www.w3.org/TR/2001/REC-SVG-20010904/DTD/svg10.dtd">
<svg version="1.0" xmlns="http://www.w3.org/2000/svg"
 width="360.000000pt" height="360.000000pt" viewBox="0 0 360.000000 360.000000"
 preserveAspectRatio="xMidYMid meet">
<metadata>
Created by potrace 1.16, written by Peter Selinger 2001-2019
</metadata>
<g transform="translate(0.000000,360.000000) scale(0.100000,-0.100000)"
fill="#000000" stroke="none">
<path d="M989 2249 l-27 -70 327 1 c179 1 325 -2 324 -7 -3 -15 -263 -686
-266 -690 -4 -3 -190 240 -210 274 -5 7 62 69 177 165 l184 153 -159 3 -159 2
-181 -145 c-100 -81 -183 -144 -185 -142 -3 2 20 65 51 140 30 75 55 138 55
142 0 3 -104 4 -231 3 l-231 -3 -70 -165 c-86 -204 -258 -620 -258 -626 0 -2
104 -3 232 -2 l232 3 58 134 c32 74 59 136 61 137 2 2 50 -59 107 -136 l104
-140 507 0 507 0 148 139 c82 77 150 136 152 131 3 -9 -33 -215 -44 -252 -5
-17 9 -18 196 -18 l202 0 132 117 c72 64 141 125 153 136 13 11 25 19 27 16 2
-2 -2 -42 -9 -89 -7 -47 -16 -106 -20 -132 l-6 -48 213 0 214 0 83 378 c45
207 85 387 88 400 l5 22 -217 0 -216 0 -165 -146 c-91 -80 -167 -144 -169
-142 -2 1 10 59 25 128 16 69 29 133 30 143 0 16 -16 17 -202 17 l-203 0 -217
-217 c-120 -119 -219 -215 -221 -213 -2 3 37 121 87 262 l91 258 332 0 331 0
21 69 c12 38 21 72 21 75 0 3 -402 6 -892 6 l-893 0 -26 -71z"/>
</g>
</svg>
