<?xml version="1.0" standalone="no"?>
<!DOCTYPE svg PUBLIC "-//W3C//DTD SVG 20010904//EN"
 "http://www.w3.org/TR/2001/REC-SVG-20010904/DTD/svg10.dtd">
<svg version="1.0" xmlns="http://www.w3.org/2000/svg"
 width="900.000000pt" height="500.000000pt" viewBox="0 0 900.000000 500.000000"
 preserveAspectRatio="xMidYMid meet">
<metadata>
Created by potrace 1.16, written by Peter Selinger 2001-2019
</metadata>
<g transform="translate(0.000000,500.000000) scale(0.100000,-0.100000)"
fill="#000000" stroke="none">
<path d="M3490 4449 c-443 -242 -906 -496 -1030 -564 -124 -67 -486 -265 -805
-440 -319 -174 -584 -321 -589 -326 -6 -5 711 -9 1862 -9 1241 0 1872 3 1872
10 0 6 -6 10 -13 10 -22 0 -213 97 -280 142 -99 66 -199 172 -238 253 -31 64
-34 77 -34 160 1 83 4 96 37 165 95 194 347 353 688 434 58 14 248 41 340 48
30 3 -27 37 -472 281 -279 152 -513 277 -520 277 -7 0 -375 -198 -818 -441z"/>
<path d="M5235 4109 c-387 -52 -651 -257 -607 -469 29 -135 166 -254 374 -323
530 -177 1214 31 1212 368 0 81 -30 143 -102 213 -90 89 -248 162 -426 198
-89 18 -358 26 -451 13z"/>
<path d="M6597 3606 c-28 -171 -255 -370 -527 -462 -30 -10 -59 -22 -64 -26
-6 -4 340 -8 767 -8 427 0 777 3 777 8 0 4 -87 54 -193 112 -105 57 -318 173
-471 257 -154 84 -281 153 -282 153 -1 0 -4 -15 -7 -34z"/>
<path d="M3695 2824 c-60 -13 -112 -28 -116 -32 -4 -4 -32 -153 -63 -332 -32
-179 -80 -455 -108 -615 -58 -338 -61 -410 -15 -488 92 -157 321 -199 574
-105 l88 33 21 125 c12 69 20 126 19 128 -2 2 -18 -6 -36 -18 -99 -60 -292
-90 -360 -54 -38 19 -59 68 -59 131 1 26 27 192 58 368 l57 320 205 3 205 2
18 103 c10 56 21 110 23 120 5 16 -9 17 -200 17 -113 0 -206 4 -206 8 0 4 11
71 25 148 14 76 25 145 25 152 0 17 -27 14 -155 -14z"/>
<path d="M4845 2551 c-168 -22 -292 -88 -422 -224 -87 -92 -143 -184 -182
-302 -81 -245 -62 -467 53 -629 56 -79 125 -130 219 -164 66 -24 85 -26 222
-25 121 1 167 5 235 23 93 25 287 111 295 132 8 20 45 242 41 245 -1 2 -45
-19 -97 -46 -141 -74 -226 -95 -384 -96 -112 0 -136 3 -176 21 -59 27 -125 87
-149 134 -23 44 -43 144 -38 190 l3 35 456 3 457 2 12 101 c18 149 1 280 -52
383 -26 52 -102 132 -154 162 -83 49 -217 70 -339 55z m172 -260 c22 -11 52
-34 67 -51 32 -39 58 -125 54 -180 l-3 -41 -314 0 c-172 0 -315 2 -317 4 -6 6
56 119 87 158 41 52 109 98 178 121 73 24 190 19 248 -11z"/>
<path d="M6085 2535 c-249 -61 -453 -249 -544 -501 -123 -339 -51 -636 185
-761 158 -84 394 -93 627 -25 l92 27 23 129 c13 70 22 130 20 131 -2 2 -51
-13 -108 -33 -101 -35 -110 -36 -245 -37 -124 0 -145 3 -187 22 -157 73 -220
233 -169 432 39 155 138 282 268 344 64 30 74 32 183 32 128 -1 174 -13 285
-80 32 -20 59 -34 60 -33 1 2 8 32 14 68 6 36 17 98 25 138 l14 73 -48 24
c-93 47 -183 65 -320 64 -69 -1 -147 -7 -175 -14z"/>
<path d="M1360 2529 c-323 -31 -617 -286 -706 -611 -12 -42 -18 -99 -18 -173
0 -93 5 -121 26 -183 51 -141 143 -247 270 -307 97 -46 169 -58 303 -52 121 6
192 25 307 83 37 19 69 34 72 34 2 0 0 -17 -5 -37 -20 -88 -26 -84 124 -81
l132 3 12 65 c62 333 113 657 113 720 0 339 -275 574 -630 539z m187 -290
c195 -95 242 -349 102 -558 -165 -247 -496 -304 -669 -115 -139 153 -109 399
69 567 151 142 342 183 498 106z"/>
<path d="M3208 2506 c-75 -17 -139 -34 -142 -37 -3 -3 -35 -170 -70 -371 -85
-481 -93 -510 -155 -580 -50 -57 -119 -82 -231 -82 -114 -1 -175 23 -212 82
-37 60 -30 146 52 600 39 222 69 406 66 409 -3 3 -67 -7 -143 -24 l-137 -29
-68 -385 c-85 -481 -89 -579 -27 -700 27 -53 109 -122 175 -148 117 -45 309
-51 450 -16 99 26 200 81 264 146 61 62 127 176 154 269 16 51 168 892 163
895 -1 1 -64 -12 -139 -29z"/>
<path d="M7255 2511 c-286 -78 -519 -307 -596 -588 -25 -92 -30 -230 -10 -313
48 -201 217 -364 416 -401 88 -17 265 -6 345 21 390 132 643 524 569 882 -36
174 -175 329 -349 389 -92 32 -276 37 -375 10z m292 -272 c68 -33 118 -84 155
-158 20 -39 23 -61 23 -151 0 -102 -1 -108 -39 -185 -95 -196 -323 -324 -508
-286 -199 41 -311 202 -279 401 30 188 207 370 396 409 83 17 181 5 252 -30z"/>
<path d="M8194 2520 c-39 -16 -74 -68 -74 -112 0 -32 7 -47 33 -73 80 -80 207
-35 209 74 0 48 -15 77 -55 101 -33 21 -77 25 -113 10z m114 -46 c31 -36 30
-97 -3 -129 -73 -74 -192 23 -141 114 31 55 102 63 144 15z"/>
<path d="M5905 1116 c-31 -9 -41 -17 -43 -36 -2 -14 -28 -165 -58 -337 -30
-171 -54 -316 -54 -322 0 -7 25 -11 65 -11 62 0 65 1 65 24 l0 25 46 -26 c68
-38 170 -36 259 5 111 53 196 164 211 278 13 108 -48 219 -143 260 -54 22
-184 16 -240 -12 -28 -14 -43 -17 -43 -10 0 13 17 114 25 154 5 19 1 22 -22
21 -16 0 -46 -6 -68 -13z m306 -269 c97 -65 77 -214 -39 -288 -37 -24 -57 -29
-105 -29 -55 0 -62 3 -97 38 -64 63 -63 148 2 226 61 74 171 99 239 53z"/>
<path d="M6783 1117 c-41 -9 -43 -12 -52 -61 -10 -50 -111 -634 -111 -642 0
-2 27 -4 60 -4 40 0 62 4 65 12 2 7 29 157 60 333 30 176 58 332 61 348 5 23
3 27 -18 26 -13 -1 -42 -6 -65 -12z"/>
<path d="M7211 1056 c-30 -7 -58 -18 -62 -26 -6 -13 -73 -351 -94 -472 -19
-116 106 -179 262 -133 50 15 50 16 61 67 5 29 9 54 8 56 -2 1 -18 -4 -37 -12
-53 -21 -115 -29 -138 -16 -27 14 -26 49 2 195 l22 110 91 3 92 3 6 38 c3 22
9 46 12 55 5 14 -6 16 -86 16 l-92 0 7 38 c4 20 9 49 12 65 3 15 2 26 -3 26
-5 -1 -33 -7 -63 -13z"/>
<path d="M4458 938 c-46 -12 -113 -69 -138 -118 -17 -32 -90 -355 -90 -396 0
-11 15 -14 63 -14 l62 0 29 163 c35 197 52 242 100 262 56 24 115 15 138 -19
14 -21 8 -83 -22 -231 -16 -81 -30 -154 -30 -162 0 -11 14 -13 62 -11 l63 3
32 175 c18 96 37 185 42 198 18 37 70 64 119 59 56 -6 82 -30 82 -76 0 -20
-16 -109 -34 -198 l-33 -163 63 0 c51 0 64 3 68 18 3 9 19 93 36 186 27 148
30 175 20 218 -21 84 -90 123 -213 116 -50 -2 -85 -10 -116 -26 -38 -20 -46
-21 -60 -9 -40 35 -159 47 -243 25z"/>
<path d="M5373 931 c-170 -62 -271 -219 -233 -360 16 -59 81 -123 149 -146
172 -57 397 59 446 230 32 108 -13 215 -110 265 -66 33 -176 38 -252 11z m174
-108 c83 -39 97 -149 30 -222 -116 -126 -317 -93 -317 52 0 129 166 228 287
170z"/>
<path d="M6485 938 c-2 -7 -20 -116 -40 -243 -20 -126 -39 -242 -42 -257 l-5
-28 66 0 c36 0 66 3 66 6 0 6 79 466 87 506 l6 28 -67 0 c-44 0 -68 -4 -71
-12z"/>
<path d="M6916 923 c-3 -16 -22 -125 -41 -243 -19 -118 -38 -227 -41 -242 l-6
-28 66 0 c60 0 66 2 71 23 8 36 85 492 85 505 0 8 -21 12 -64 12 -62 0 -65 -1
-70 -27z"/>
<path d="M7500 936 c0 -3 20 -120 45 -261 l44 -256 -74 -150 c-41 -82 -75
-152 -75 -156 0 -11 120 -7 130 3 4 5 63 113 130 239 67 127 165 307 216 401
52 94 94 174 94 178 0 3 -34 6 -75 6 l-75 0 -81 -161 c-44 -89 -82 -159 -84
-157 -2 2 -13 64 -25 138 -30 200 -19 180 -100 180 -39 0 -70 -2 -70 -4z"/>
</g>
</svg>
