<?xml version="1.0" standalone="no"?>
<!DOCTYPE svg PUBLIC "-//W3C//DTD SVG 20010904//EN"
 "http://www.w3.org/TR/2001/REC-SVG-20010904/DTD/svg10.dtd">
<svg version="1.0" xmlns="http://www.w3.org/2000/svg"
 width="2560.000000pt" height="1629.000000pt" viewBox="0 0 2560.000000 1629.000000"
 preserveAspectRatio="xMidYMid meet">
<metadata>
Created by potrace 1.16, written by Peter Selinger 2001-2019
</metadata>
<g transform="translate(0.000000,1629.000000) scale(0.100000,-0.100000)"
fill="#000000" stroke="none">
<path d="M11840 16259 c-1164 -24 -2269 -92 -3045 -190 -1275 -159 -2000 -502
-2430 -1149 -107 -162 -162 -264 -228 -430 -182 -454 -243 -889 -268 -1895
-17 -709 5 -1525 62 -2255 36 -470 123 -1305 170 -1635 154 -1084 318 -1707
583 -2220 161 -312 321 -503 611 -730 376 -294 1023 -519 1810 -630 1439 -203
4787 -242 6755 -80 953 79 1629 228 2125 470 238 115 441 261 635 455 163 163
271 319 394 570 245 501 396 1076 540 2065 92 625 185 1597 226 2345 40 735 5
2221 -66 2750 -145 1095 -668 1768 -1635 2105 -459 159 -963 250 -1834 330
-1197 109 -2859 156 -4405 124z m1770 -449 c1396 -31 2561 -120 3355 -256 541
-93 941 -245 1252 -477 419 -313 660 -775 758 -1452 69 -477 101 -1198 92
-2080 -8 -712 -24 -1021 -98 -1815 -185 -2008 -458 -2955 -1002 -3477 -282
-271 -657 -453 -1160 -563 -781 -172 -2129 -260 -3977 -260 -1816 0 -3185 87
-3948 251 -701 151 -1153 425 -1453 882 -423 643 -659 1771 -804 3842 -27 392
-35 611 -41 1115 -13 990 37 1880 132 2349 140 688 475 1143 1044 1415 272
129 543 208 952 275 886 146 2065 230 3538 250 785 11 891 11 1360 1z"/>
<path d="M9225 15299 c-157 -8 -565 -45 -572 -52 -4 -5 165 -2644 282 -4407
111 -1665 235 -3343 335 -4565 17 -198 30 -367 30 -376 0 -18 63 -29 320 -53
250 -24 1090 -66 1090 -54 0 8 217 836 261 996 145 527 282 912 400 1127 148
269 355 409 689 465 255 43 428 55 800 55 376 -1 534 -14 794 -66 314 -63 511
-219 663 -524 158 -316 331 -873 569 -1827 l56 -228 60 0 c200 0 821 39 1135
70 106 11 194 20 197 20 7 0 14 86 61 670 147 1842 262 3475 450 6390 136
2121 148 2301 144 2305 -15 15 -462 50 -770 61 l-196 7 -6 -29 c-33 -159 -434
-1971 -488 -2204 -76 -326 -341 -1395 -440 -1775 -242 -927 -409 -1318 -680
-1599 -244 -254 -526 -384 -954 -441 -304 -40 -1007 -38 -1308 5 -413 58 -702
197 -938 449 -279 297 -460 757 -725 1841 -41 168 -129 523 -194 790 -163 664
-208 862 -450 1960 -115 525 -212 965 -215 978 -5 21 -9 22 -118 21 -61 -1
-188 -6 -282 -10z"/>
<path d="M7290 3155 c-702 -67 -1182 -248 -1506 -570 -199 -198 -305 -394
-366 -679 -29 -136 -30 -405 -4 -546 119 -618 585 -1025 1376 -1200 282 -63
581 -90 980 -90 495 0 829 39 1167 135 358 102 608 240 824 454 250 248 369
523 386 891 18 396 -107 745 -366 1013 -306 317 -758 502 -1431 583 -187 23
-857 28 -1060 9z m750 -566 c127 -17 231 -48 339 -100 87 -43 117 -63 182
-128 65 -65 85 -95 127 -182 76 -157 112 -338 112 -564 0 -226 -36 -407 -112
-564 -42 -87 -62 -116 -126 -180 -110 -109 -245 -176 -433 -215 -195 -40 -521
-40 -711 -1 -426 89 -625 329 -668 805 -22 245 6 485 79 668 73 184 234 333
436 405 195 69 507 92 775 56z"/>
<path d="M13526 3008 c-15 -198 -18 -338 -6 -338 51 0 428 -53 453 -64 41 -17
81 -60 104 -111 17 -37 18 -93 21 -800 2 -659 1 -758 -12 -745 -7 8 -352 463
-766 1010 -413 547 -771 1014 -794 1037 -80 77 -17 73 -1203 73 l-1053 0 0
-200 c0 -139 3 -200 11 -200 6 0 104 -11 218 -25 253 -31 281 -42 326 -130
l30 -59 0 -835 c0 -678 -3 -843 -14 -874 -17 -50 -67 -106 -108 -123 -25 -11
-402 -64 -452 -64 -8 0 -11 -61 -11 -200 l0 -200 935 0 935 0 0 200 c0 110 -2
200 -5 200 -55 0 -438 55 -462 67 -45 21 -90 75 -103 122 -7 26 -9 288 -8 786
l3 748 773 -1016 c425 -559 788 -1028 807 -1043 72 -54 65 -54 891 -54 l763 0
3 1143 c3 899 6 1150 16 1180 17 50 75 113 115 126 24 8 419 61 452 61 3 0 5
90 5 200 l0 200 -929 0 -929 0 -6 -72z"/>
<path d="M0 2870 c0 -139 3 -200 11 -200 6 0 104 -11 217 -25 232 -29 278 -44
317 -104 13 -20 29 -56 34 -81 14 -61 14 -1629 0 -1690 -5 -25 -21 -61 -34
-81 -39 -60 -85 -75 -317 -104 -113 -14 -211 -25 -217 -25 -8 0 -11 -61 -11
-200 l0 -200 1170 0 1170 0 0 200 c0 110 -3 200 -7 200 -3 0 -101 11 -217 25
-259 31 -286 42 -331 130 l-30 59 -3 268 -4 268 891 0 891 0 0 -253 c0 -276
-8 -329 -55 -385 -14 -17 -43 -37 -65 -46 -32 -13 -400 -66 -457 -66 -10 0
-13 -40 -13 -200 l0 -200 1170 0 1170 0 0 200 c0 110 -2 200 -5 200 -45 0
-436 54 -459 64 -43 18 -92 77 -108 128 -19 63 -19 1663 0 1726 16 53 72 117
116 132 25 8 411 60 449 60 4 0 7 90 7 200 l0 200 -1170 0 -1170 0 0 -198 0
-198 221 -27 c250 -30 294 -44 333 -104 39 -60 45 -111 46 -375 l0 -248 -896
0 -896 0 4 268 3 268 30 59 c45 88 72 99 330 130 116 14 213 25 218 25 4 0 7
90 7 200 l0 200 -1170 0 -1170 0 0 -200z"/>
<path d="M15590 2870 c0 -124 4 -200 10 -200 5 0 92 -9 192 -20 222 -25 277
-46 315 -119 l23 -44 0 -846 c0 -560 -4 -859 -11 -884 -13 -47 -63 -106 -106
-123 -26 -11 -399 -64 -450 -64 -10 0 -13 -40 -13 -200 l0 -201 1623 4 1622 3
145 23 c722 115 1163 419 1344 929 92 259 101 651 20 930 -110 379 -389 670
-800 836 -179 71 -351 115 -604 153 -104 15 -266 17 -1712 20 l-1598 4 0 -201z
m2965 -403 c108 -34 173 -68 236 -125 139 -125 205 -322 216 -647 19 -563
-120 -838 -474 -937 -75 -22 -97 -22 -670 -26 l-593 -3 0 886 0 886 598 -3
597 -4 90 -27z"/>
<path d="M21090 2870 c0 -110 3 -200 8 -200 58 0 518 -55 550 -66 55 -20 92
-72 92 -130 0 -48 36 12 -595 -1008 -247 -400 -465 -745 -483 -766 -53 -64
-97 -78 -318 -105 -108 -14 -203 -25 -211 -25 -10 0 -13 -40 -13 -200 l0 -200
930 0 930 0 0 200 c0 184 -1 200 -17 200 -80 1 -339 32 -372 46 -56 22 -91 66
-91 113 0 29 16 63 67 147 36 60 75 124 85 142 l20 32 891 0 892 0 78 -119
c93 -142 106 -177 80 -229 -35 -72 -99 -90 -445 -127 l-68 -7 0 -199 0 -199
1250 0 1250 0 0 199 0 199 -47 6 c-27 3 -118 13 -204 21 -199 19 -253 38 -320
111 -15 16 -349 522 -742 1124 -458 700 -735 1115 -769 1152 -91 95 6 88
-1295 88 l-1133 0 0 -200z m1726 -862 l284 -433 -551 -3 c-304 -1 -554 -1
-556 1 -2 2 117 200 264 440 147 239 270 434 272 432 2 -3 131 -199 287 -437z"/>
</g>
</svg>
