<?xml version="1.0" standalone="no"?>
<!DOCTYPE svg PUBLIC "-//W3C//DTD SVG 20010904//EN"
 "http://www.w3.org/TR/2001/REC-SVG-20010904/DTD/svg10.dtd">
<svg version="1.0" xmlns="http://www.w3.org/2000/svg"
 width="900.000000pt" height="500.000000pt" viewBox="0 0 900.000000 500.000000"
 preserveAspectRatio="xMidYMid meet">
<metadata>
Created by potrace 1.16, written by Peter Selinger 2001-2019
</metadata>
<g transform="translate(0.000000,500.000000) scale(0.100000,-0.100000)"
fill="#000000" stroke="none">
<path d="M4417 4324 c-151 -142 -435 -349 -669 -487 -79 -47 -293 -157 -349
-180 -11 -5 -11 -8 1 -16 8 -5 168 -127 355 -271 187 -144 505 -388 707 -543
l367 -282 -27 -22 c-15 -12 -30 -22 -34 -23 -4 0 -132 94 -285 209 -153 114
-302 220 -330 235 -122 61 -284 71 -443 26 -77 -22 -244 -103 -295 -144 l-28
-23 50 -39 c27 -21 151 -115 274 -209 251 -190 426 -322 638 -485 l144 -109
77 73 c221 211 630 487 923 623 l107 50 -206 159 c-113 87 -230 177 -259 199
-47 36 -532 409 -724 558 -42 33 -101 78 -131 100 -30 23 -70 54 -87 69 l-33
27 31 21 c36 26 14 39 267 -154 310 -235 356 -266 432 -293 176 -60 374 -33
584 82 149 81 148 67 10 172 -65 50 -164 125 -219 167 -137 104 -548 416 -659
500 -50 37 -95 72 -101 76 -6 5 -43 -23 -88 -66z"/>
<path d="M2310 1569 c-130 -19 -234 -82 -271 -164 -27 -58 -25 -149 4 -205 43
-86 170 -139 372 -155 107 -9 152 -22 166 -46 17 -32 3 -66 -32 -78 -72 -25
-147 -3 -185 54 l-16 25 -174 0 c-197 0 -187 6 -159 -87 11 -36 27 -62 56 -88
88 -79 178 -99 420 -93 212 5 263 20 344 102 93 93 100 207 18 297 -62 68
-161 106 -354 134 -143 21 -179 35 -179 69 0 35 37 57 97 58 57 1 103 -20 133
-62 l21 -30 155 0 154 0 0 28 c0 45 -49 131 -92 162 -96 70 -306 105 -478 79z"/>
<path d="M6483 1553 l-181 -3 -144 -136 -143 -137 -3 137 -3 136 -139 0 -140
0 0 -405 0 -405 140 0 139 0 3 143 3 142 135 -142 135 -142 190 -1 190 0 -208
208 -208 209 208 194 c114 106 210 197 211 201 2 4 2 7 0 6 -1 -2 -85 -4 -185
-5z"/>
<path d="M2982 1228 l3 -323 25 -45 c15 -26 45 -58 71 -76 70 -47 137 -56 355
-52 172 3 194 6 241 27 62 27 117 84 134 138 8 25 14 142 16 346 l5 307 -136
0 -136 0 0 -264 c0 -258 0 -264 -23 -297 -30 -45 -70 -63 -137 -63 -63 0 -111
22 -137 61 -16 24 -18 56 -18 295 l0 268 -133 0 -133 0 3 -322z"/>
<path d="M3900 1450 l0 -100 201 0 c117 0 199 -4 197 -9 -1 -5 -95 -103 -208
-218 l-205 -208 0 -85 0 -85 428 -3 427 -2 0 105 0 105 -212 0 -213 0 213 213
212 212 0 88 0 87 -420 0 -420 0 0 -100z"/>
<path d="M4812 1233 c3 -308 4 -319 26 -365 29 -58 77 -95 154 -119 82 -26
396 -27 479 -3 78 24 125 60 157 124 l27 55 3 313 3 312 -135 0 -136 0 0 -266
c0 -294 -2 -303 -64 -340 -41 -24 -138 -25 -183 -1 -60 32 -63 47 -63 342 l0
265 -136 0 -135 0 3 -317z"/>
<path d="M6720 1145 l0 -405 135 0 135 0 2 405 3 405 -137 0 -138 0 0 -405z"/>
</g>
</svg>
