<?xml version="1.0" standalone="no"?>
<!DOCTYPE svg PUBLIC "-//W3C//DTD SVG 20010904//EN"
 "http://www.w3.org/TR/2001/REC-SVG-20010904/DTD/svg10.dtd">
<svg version="1.0" xmlns="http://www.w3.org/2000/svg"
 width="512.000000pt" height="512.000000pt" viewBox="0 0 512.000000 512.000000"
 preserveAspectRatio="xMidYMid meet">
<metadata>
Created by potrace 1.16, written by Peter Selinger 2001-2019
</metadata>
<g transform="translate(0.000000,512.000000) scale(0.100000,-0.100000)"
fill="#000000" stroke="none">
<path d="M520 3000 l0 -680 615 0 615 0 0 340 0 341 128 -6 c371 -17 519 -36
717 -90 286 -79 467 -175 521 -277 18 -35 18 -101 0 -136 -23 -43 -87 -99
-156 -137 l-65 -35 853 0 852 0 0 28 c0 42 -28 130 -62 194 -40 75 -171 202
-267 258 -131 76 -356 160 -501 187 l-45 9 90 17 c164 33 343 104 462 185 171
116 292 283 318 440 l7 42 -829 -1 c-782 0 -827 -1 -803 -17 87 -61 115 -103
107 -169 -9 -86 -105 -181 -266 -266 -205 -109 -502 -170 -888 -184 l-173 -6
0 321 0 322 -615 0 -615 0 0 -680z"/>
<path d="M520 1775 l0 -315 100 0 100 0 0 93 c0 78 3 97 18 110 10 10 21 17
24 17 3 0 37 -49 74 -110 l69 -110 129 0 c100 0 127 3 123 13 -2 7 -56 87
-119 177 -63 91 -118 171 -122 178 -6 9 29 52 111 135 l118 122 -124 3 -125 3
-88 -88 -88 -88 0 88 0 87 -100 0 -100 0 0 -315z"/>
<path d="M3859 1783 c-1 -270 -2 -304 -14 -278 -9 19 -14 68 -15 135 -1 213
-24 266 -129 297 -76 22 -196 13 -259 -19 -49 -25 -92 -88 -92 -135 0 -22 3
-23 90 -23 69 0 90 3 90 13 0 38 75 62 99 33 17 -20 -18 -41 -94 -56 -129 -26
-185 -69 -192 -147 -5 -60 19 -109 68 -135 46 -25 140 -24 198 3 40 17 46 18
53 4 8 -13 39 -15 203 -15 l195 0 0 70 c0 39 4 70 9 70 4 0 29 -31 55 -70 l46
-70 110 0 c61 0 110 2 110 5 0 3 -26 45 -58 93 -32 48 -73 111 -91 140 l-34
53 76 77 c43 43 77 81 77 85 0 4 -50 7 -111 7 l-111 0 -39 -42 -38 -43 -1 128
0 127 -100 0 -100 0 -1 -307z"/>
<path d="M4400 2025 l0 -65 95 0 95 0 0 65 0 65 -95 0 -95 0 0 -65z"/>
<path d="M1278 1936 c-85 -23 -126 -63 -135 -136 l-6 -40 92 0 c72 0 91 3 91
14 0 40 83 65 97 30 9 -24 -19 -40 -90 -53 -89 -16 -161 -54 -181 -95 -35 -74
-8 -164 59 -192 50 -20 141 -18 194 7 40 17 46 18 53 4 7 -12 29 -15 103 -15
52 0 95 2 95 3 0 2 -6 17 -14 33 -9 18 -16 85 -20 183 -8 166 -16 195 -63 229
-59 42 -179 54 -275 28z"/>
<path d="M2508 1937 c-86 -25 -138 -79 -138 -144 l0 -33 90 0 c80 0 90 2 90
18 0 27 20 42 57 42 40 0 56 -26 29 -46 -10 -6 -47 -17 -83 -24 -134 -23 -193
-72 -193 -160 0 -57 30 -107 75 -126 50 -21 143 -18 190 6 34 18 41 18 55 5
12 -11 41 -15 109 -15 l92 0 -17 32 c-12 24 -18 73 -23 193 -7 183 -13 200
-84 237 -52 27 -179 34 -249 15z"/>
<path d="M2965 1922 c-65 -31 -95 -74 -95 -136 0 -88 44 -124 181 -151 81 -15
110 -35 89 -59 -25 -31 -84 -13 -100 30 -9 23 -14 24 -96 24 l-87 0 6 -42 c7
-53 32 -86 88 -118 39 -22 55 -25 149 -25 89 0 111 4 148 23 54 29 82 73 82
132 0 97 -47 139 -186 167 -91 18 -108 28 -80 49 24 17 56 10 75 -17 11 -16
26 -19 98 -19 l85 0 -7 33 c-9 43 -35 78 -76 102 -50 29 -218 33 -274 7z"/>
<path d="M1669 1693 l78 -228 98 0 98 0 25 92 c14 51 28 91 31 88 4 -2 20 -44
36 -94 l29 -91 92 0 93 0 35 113 c19 61 49 159 67 217 17 58 34 111 37 118 3
10 -17 12 -94 10 l-98 -3 -30 -94 c-25 -79 -31 -91 -37 -70 -4 13 -17 57 -29
97 l-21 72 -84 0 -85 0 -27 -90 c-15 -50 -30 -87 -34 -83 -4 5 -18 44 -31 88
l-24 80 -102 3 -102 3 79 -228z"/>
<path d="M4400 1690 l0 -230 95 0 95 0 0 230 0 230 -95 0 -95 0 0 -230z"/>
</g>
</svg>
