<?xml version="1.0" standalone="no"?>
<!DOCTYPE svg PUBLIC "-//W3C//DTD SVG 20010904//EN"
 "http://www.w3.org/TR/2001/REC-SVG-20010904/DTD/svg10.dtd">
<svg version="1.0" xmlns="http://www.w3.org/2000/svg"
 width="512.000000pt" height="512.000000pt" viewBox="0 0 512.000000 512.000000"
 preserveAspectRatio="xMidYMid meet">
<metadata>
Created by potrace 1.16, written by Peter Selinger 2001-2019
</metadata>
<g transform="translate(0.000000,512.000000) scale(0.100000,-0.100000)"
fill="#000000" stroke="none">
<path d="M2340 4972 l-175 -87 -235 -5 c-205 -4 -240 -7 -263 -23 -16 -10 -87
-92 -160 -183 l-132 -165 -195 -94 c-115 -55 -202 -103 -212 -117 -10 -12 -39
-118 -66 -235 l-49 -211 -135 -170 c-75 -94 -139 -184 -143 -200 -4 -19 10
-97 39 -226 26 -109 46 -210 46 -226 0 -16 -20 -117 -46 -226 -29 -129 -43
-207 -39 -226 4 -16 68 -106 143 -200 l135 -170 49 -211 c27 -117 55 -221 63
-233 8 -12 81 -54 165 -95 82 -40 150 -76 150 -80 0 -5 -136 -187 -302 -406
-295 -387 -303 -399 -303 -443 0 -56 25 -97 68 -115 18 -7 136 -32 263 -56
l231 -43 114 -229 c68 -136 123 -236 136 -244 35 -23 95 -27 130 -10 19 10
160 187 403 508 206 270 380 493 386 496 7 2 35 -7 63 -21 64 -33 114 -33 185
0 31 14 60 23 64 20 5 -3 177 -226 382 -496 242 -318 384 -497 404 -507 34
-17 94 -13 129 10 14 9 67 105 136 243 l113 229 246 47 c171 32 253 52 271 66
36 27 57 84 45 127 -5 20 -130 193 -304 422 -162 213 -296 392 -298 398 -1 6
65 44 148 84 86 41 156 81 165 94 8 12 36 117 63 234 l49 211 135 170 c75 94
139 184 143 200 4 19 -10 97 -39 226 -26 109 -46 210 -46 226 0 16 20 117 46
226 29 129 43 207 39 226 -4 16 -68 106 -143 200 l-135 170 -49 211 c-27 117
-55 221 -63 233 -12 19 -372 204 -396 204 -5 0 -69 76 -143 169 -74 94 -147
178 -163 188 -23 16 -58 19 -263 23 l-235 6 -176 87 c-142 70 -185 87 -220 87
-35 -1 -82 -20 -219 -88z m396 -257 l177 -85 206 0 206 0 125 -158 125 -157
185 -91 185 -91 37 -164 c20 -90 42 -181 48 -202 6 -22 60 -99 130 -187 66
-83 120 -156 120 -162 0 -7 -18 -97 -41 -200 l-42 -188 42 -187 c23 -104 41
-194 41 -200 0 -7 -55 -83 -123 -168 l-123 -154 -44 -197 -44 -197 -186 -91
-185 -91 -125 -157 -125 -158 -206 0 -206 0 -176 -85 -177 -85 -176 85 -177
85 -206 0 -206 1 -125 157 -125 157 -185 91 -185 92 -37 163 c-20 90 -42 181
-48 202 -6 22 -60 99 -130 187 -66 83 -120 156 -120 162 0 7 18 97 41 201 l42
187 -42 188 c-23 103 -41 193 -41 200 0 6 54 79 120 162 70 88 124 165 130
187 6 21 28 112 48 202 l37 163 185 92 185 91 125 157 125 158 206 0 206 0
174 84 c96 47 175 85 176 85 2 1 82 -37 179 -84z m-1130 -3449 c31 -38 63 -65
85 -73 22 -8 110 -12 251 -12 119 -1 219 -5 222 -9 4 -7 -528 -718 -569 -761
-12 -12 -25 9 -88 140 -48 100 -84 163 -103 179 -25 21 -62 31 -207 59 l-176
33 161 211 c88 117 191 252 227 300 l66 89 40 -48 c22 -26 63 -75 91 -108z
m2244 -116 c106 -140 206 -271 222 -291 l28 -37 -177 -33 c-144 -27 -182 -38
-206 -58 -19 -16 -56 -80 -104 -180 -63 -133 -76 -153 -87 -140 -37 38 -574
754 -570 759 3 3 110 7 238 10 197 4 236 8 258 22 15 10 64 63 109 119 45 55
85 97 89 92 4 -4 94 -123 200 -263z"/>
<path d="M2320 4466 c-625 -110 -1105 -592 -1205 -1211 -19 -116 -19 -354 0
-470 100 -620 590 -1110 1210 -1210 116 -19 354 -19 470 0 621 100 1110 589
1210 1210 19 116 19 354 0 470 -65 403 -294 757 -640 989 -136 92 -327 172
-505 211 -101 23 -435 29 -540 11z m430 -248 c169 -23 386 -115 537 -228 240
-178 417 -465 468 -759 21 -120 19 -318 -4 -438 -112 -574 -609 -984 -1191
-984 -144 0 -259 18 -380 59 -437 149 -742 510 -821 972 -14 85 -12 295 5 390
43 241 163 468 340 646 215 214 483 335 796 357 57 4 154 -1 250 -15z"/>
<path d="M2493 3740 c-40 -24 -53 -48 -53 -100 0 -55 22 -94 64 -114 57 -27
107 -17 151 30 20 21 25 38 25 78 0 58 -17 89 -60 111 -40 21 -89 19 -127 -5z"/>
<path d="M1634 3406 c-30 -30 -34 -40 -34 -86 0 -46 4 -56 34 -86 30 -30 40
-34 86 -34 46 0 56 4 86 34 30 30 34 40 34 86 0 46 -4 56 -34 86 -30 30 -40
34 -86 34 -46 0 -56 -4 -86 -34z"/>
<path d="M2504 3426 c-25 -11 -56 -54 -145 -200 -63 -102 -118 -186 -122 -186
-4 0 -54 31 -110 68 -56 38 -116 76 -134 85 -89 46 -183 -9 -183 -108 0 -44
106 -687 121 -733 7 -20 24 -42 43 -53 30 -18 56 -19 586 -19 530 0 556 1 586
19 19 11 36 33 43 53 15 46 121 689 121 733 0 99 -94 154 -183 108 -18 -9 -78
-47 -134 -85 -56 -37 -106 -68 -110 -68 -5 0 -58 82 -118 181 -61 100 -120
188 -132 196 -32 21 -93 26 -129 9z m151 -512 c49 -80 100 -154 114 -163 36
-23 109 -21 146 5 17 11 46 30 66 42 l36 21 -25 -149 -25 -150 -407 0 -407 0
-25 150 -25 149 36 -21 c20 -12 50 -31 66 -42 37 -26 110 -28 146 -5 14 9 65
83 114 163 48 80 91 146 95 146 4 0 47 -66 95 -146z"/>
<path d="M3314 3406 c-30 -30 -34 -40 -34 -86 0 -46 4 -56 34 -86 30 -30 40
-34 86 -34 46 0 56 4 86 34 30 30 34 40 34 86 0 46 -4 56 -34 86 -30 30 -40
34 -86 34 -46 0 -56 -4 -86 -34z"/>
</g>
</svg>
