<?xml version="1.0" standalone="no"?>
<!DOCTYPE svg PUBLIC "-//W3C//DTD SVG 20010904//EN"
 "http://www.w3.org/TR/2001/REC-SVG-20010904/DTD/svg10.dtd">
<svg version="1.0" xmlns="http://www.w3.org/2000/svg"
 width="512.000000pt" height="512.000000pt" viewBox="0 0 512.000000 512.000000"
 preserveAspectRatio="xMidYMid meet">
<metadata>
Created by potrace 1.16, written by Peter Selinger 2001-2019
</metadata>
<g transform="translate(0.000000,512.000000) scale(0.100000,-0.100000)"
fill="#000000" stroke="none">
<path d="M374 5016 c-135 -33 -244 -146 -273 -284 -16 -75 -16 -4269 0 -4344
30 -140 139 -252 278 -284 83 -20 4279 -20 4362 0 139 32 248 144 278 284 18
84 15 4278 -3 4353 -32 139 -144 248 -284 278 -80 17 -4288 14 -4358 -3z
m4381 -140 c60 -28 97 -66 124 -126 19 -42 21 -65 21 -347 l0 -303 -2340 0
-2340 0 0 303 c0 282 2 305 21 347 27 60 64 98 124 126 l50 24 2145 0 2145 0
50 -24z m145 -2683 c0 -1767 -1 -1778 -21 -1823 -27 -60 -64 -98 -124 -126
l-50 -24 -2145 0 c-2136 0 -2145 1 -2190 21 -60 27 -98 64 -126 124 l-24 50 0
1778 0 1777 2340 0 2340 0 0 -1777z"/>
<path d="M565 4711 c-46 -12 -68 -26 -108 -70 -77 -86 -73 -212 9 -295 46 -46
83 -60 154 -61 53 0 73 5 112 28 138 81 140 292 4 372 -47 28 -122 39 -171 26z
m116 -150 c20 -20 29 -39 29 -61 0 -43 -47 -90 -90 -90 -43 0 -90 47 -90 90 0
43 47 90 90 90 22 0 41 -9 61 -29z"/>
<path d="M1118 4706 c-91 -33 -139 -94 -146 -187 -6 -78 17 -138 69 -182 146
-126 359 -29 359 163 0 73 -23 125 -76 168 -58 48 -137 63 -206 38z m118 -131
c34 -23 49 -69 34 -105 -41 -100 -182 -67 -171 40 7 65 85 102 137 65z"/>
<path d="M1678 4705 c-63 -20 -123 -88 -137 -156 -17 -78 1 -141 58 -199 71
-74 155 -89 247 -46 157 73 168 294 19 381 -54 32 -125 39 -187 20z m131 -141
c62 -52 25 -154 -55 -154 -51 0 -89 38 -89 90 0 80 82 116 144 64z"/>
<path d="M3770 3783 c-39 -14 -40 -22 -40 -493 0 -430 1 -458 18 -473 17 -15
65 -17 480 -17 l461 0 15 22 c14 20 16 81 16 471 l0 448 -25 24 -24 25 -443
-1 c-244 0 -450 -3 -458 -6z m820 -493 l0 -370 -365 0 -365 0 0 370 0 370 365
0 365 0 0 -370z"/>
<path d="M4263 3368 l-113 -112 -39 38 c-64 62 -131 51 -131 -22 0 -32 9 -45
69 -104 100 -98 95 -99 274 80 116 116 147 153 147 174 0 36 -24 58 -63 58
-28 0 -48 -16 -144 -112z"/>
<path d="M1442 3650 c-206 -29 -417 -117 -579 -241 -76 -60 -202 -194 -256
-276 -366 -552 -223 -1292 321 -1662 377 -255 898 -269 1285 -34 l59 36 56
-56 56 -56 -22 -24 c-14 -15 -22 -36 -22 -58 0 -32 24 -58 328 -361 380 -379
385 -383 532 -383 108 0 169 26 238 99 68 72 95 146 90 247 -8 132 -15 142
-390 517 -230 229 -340 332 -355 332 -12 0 -36 -12 -53 -27 l-32 -26 -55 55
-55 55 40 68 c53 87 98 195 130 314 24 89 26 111 26 296 0 184 -2 208 -27 298
-120 447 -476 784 -921 873 -90 18 -312 26 -394 14z m339 -135 c340 -59 637
-285 783 -596 140 -296 137 -630 -9 -924 -112 -227 -276 -390 -498 -495 -298
-142 -625 -140 -922 4 -130 64 -213 125 -313 230 -128 135 -214 292 -263 481
-20 77 -23 114 -23 250 0 141 4 172 27 260 51 189 146 355 281 491 156 157
352 260 569 299 98 18 267 18 368 0z m782 -1883 l47 -48 -68 -67 -68 -67 -49
50 -49 50 65 65 c35 36 66 65 69 65 3 0 27 -22 53 -48z m514 -354 c160 -161
297 -306 305 -323 67 -136 -31 -295 -181 -297 -88 0 -108 15 -421 327 l-295
295 145 145 c80 80 147 145 150 145 3 0 136 -132 297 -292z"/>
<path d="M1430 3306 c-173 -36 -326 -123 -452 -254 -168 -176 -248 -395 -235
-637 20 -354 245 -648 587 -767 93 -32 99 -33 265 -33 150 0 179 3 245 23 307
97 525 329 596 639 26 109 23 290 -5 398 -80 301 -304 530 -604 616 -93 27
-303 35 -397 15z m345 -136 c256 -65 444 -248 527 -510 19 -63 23 -95 22 -205
0 -113 -4 -141 -27 -210 -67 -203 -231 -381 -423 -459 -295 -120 -632 -35
-837 211 -64 77 -134 220 -153 313 -23 109 -15 270 19 375 78 240 271 420 518
485 102 26 251 26 354 0z"/>
<path d="M1552 3018 c-7 -7 -12 -38 -12 -69 0 -55 -1 -58 -29 -64 -41 -9 -120
-81 -142 -130 -21 -44 -25 -130 -9 -186 23 -82 137 -169 223 -169 112 0 179
-119 112 -198 -71 -84 -187 -56 -216 52 -16 59 -23 70 -52 80 -19 7 -32 5 -51
-8 -22 -14 -26 -24 -26 -64 0 -92 65 -183 159 -222 28 -11 30 -16 33 -68 3
-50 6 -58 31 -72 24 -13 30 -13 55 0 24 14 27 22 30 73 3 56 3 57 46 75 144
64 190 250 95 383 -30 43 -113 87 -179 95 -97 12 -143 52 -143 127 0 48 27 86
77 111 73 36 151 -11 167 -101 10 -53 29 -73 69 -73 61 0 78 76 36 166 -26 56
-96 122 -138 131 -26 5 -28 9 -28 59 0 34 -5 58 -16 68 -18 19 -75 21 -92 4z"/>
<path d="M3750 2570 c-19 -19 -20 -33 -20 -479 l0 -460 22 -15 c20 -14 82 -16
475 -16 440 0 454 1 473 20 19 19 20 33 20 475 0 442 -1 456 -20 475 -19 19
-33 20 -475 20 -442 0 -456 -1 -475 -20z m840 -475 l0 -365 -365 0 -365 0 0
365 0 365 365 0 365 0 0 -365z"/>
<path d="M4269 2173 l-118 -116 -45 41 c-25 23 -54 42 -64 42 -34 0 -62 -29
-62 -64 0 -27 12 -44 74 -104 48 -47 82 -72 97 -72 16 0 67 44 171 147 159
158 171 180 128 223 -37 37 -57 26 -181 -97z"/>
<path d="M3747 1372 c-15 -17 -17 -64 -17 -475 0 -444 1 -458 20 -477 19 -19
33 -20 470 -20 l451 0 24 25 25 24 0 451 c0 437 -1 451 -20 470 -19 19 -33 20
-478 20 -432 0 -460 -1 -475 -18z m843 -477 l0 -365 -365 0 -365 0 0 365 0
365 365 0 365 0 0 -365z"/>
<path d="M4268 973 l-118 -118 -43 43 c-64 63 -127 53 -127 -22 0 -27 12 -44
74 -104 48 -47 82 -72 97 -72 16 0 67 44 171 147 130 129 148 151 148 180 0
35 -29 63 -65 63 -12 0 -65 -44 -137 -117z"/>
</g>
</svg>
