<?xml version="1.0" standalone="no"?>
<!DOCTYPE svg PUBLIC "-//W3C//DTD SVG 20010904//EN"
 "http://www.w3.org/TR/2001/REC-SVG-20010904/DTD/svg10.dtd">
<svg version="1.0" xmlns="http://www.w3.org/2000/svg"
 width="512.000000pt" height="512.000000pt" viewBox="0 0 512.000000 512.000000"
 preserveAspectRatio="xMidYMid meet">
<metadata>
Created by potrace 1.16, written by Peter Selinger 2001-2019
</metadata>
<g transform="translate(0.000000,512.000000) scale(0.100000,-0.100000)"
fill="#000000" stroke="none">
<path d="M2382 5017 c-28 -29 -29 -86 -3 -118 19 -23 23 -24 181 -24 158 0
162 1 181 24 27 33 25 92 -4 119 -22 21 -33 22 -178 22 -150 0 -156 -1 -177
-23z"/>
<path d="M1955 4970 c-198 -52 -215 -62 -215 -128 0 -40 38 -82 74 -82 22 0
247 58 288 75 43 17 46 111 5 140 -28 19 -65 18 -152 -5z"/>
<path d="M3013 4976 c-41 -30 -38 -124 5 -141 41 -17 266 -75 288 -75 38 0 74
42 74 85 0 53 -31 75 -149 108 -135 37 -190 43 -218 23z"/>
<path d="M1330 4720 c-131 -76 -154 -98 -154 -146 0 -43 39 -84 81 -84 14 0
62 22 107 49 44 26 100 58 123 71 66 36 81 102 33 150 -34 34 -76 25 -190 -40z"/>
<path d="M3600 4760 c-48 -48 -33 -114 33 -150 23 -13 79 -45 123 -71 45 -27
93 -49 107 -49 41 0 81 41 81 83 0 49 -24 72 -152 145 -117 67 -158 76 -192
42z"/>
<path d="M2692 4673 c-23 -9 -39 -58 -87 -271 l-49 -212 45 -93 44 -92 3 -602
2 -602 -36 -17 c-20 -9 -48 -35 -62 -57 l-27 -41 0 -592 0 -593 23 -23 c22
-23 26 -23 318 -26 l295 -3 29 30 30 29 0 579 c0 542 -2 581 -19 619 -18 39
-54 73 -93 87 -17 6 -18 44 -18 597 l0 591 45 98 c25 54 45 107 45 118 0 11
-22 116 -50 234 -39 169 -54 218 -71 232 -18 15 -43 17 -188 16 -91 0 -172 -3
-179 -6z m276 -302 c18 -77 32 -147 32 -155 0 -9 -18 -56 -40 -105 l-40 -89 0
-611 0 -611 -50 0 -50 0 0 613 0 612 -41 92 -42 93 34 150 33 150 66 0 67 0
31 -139z m82 -2246 l0 -505 -180 0 -180 0 0 505 0 505 180 0 180 0 0 -505z"/>
<path d="M803 4317 c-97 -97 -103 -106 -103 -143 0 -53 31 -84 83 -84 34 0 47
9 142 105 97 96 105 107 105 143 0 51 -32 82 -85 82 -36 0 -47 -8 -142 -103z"/>
<path d="M4112 4397 c-15 -15 -22 -36 -22 -60 0 -34 9 -47 105 -142 96 -97
107 -105 143 -105 51 0 82 32 82 85 0 36 -8 47 -103 142 -97 97 -106 103 -143
103 -29 0 -47 -6 -62 -23z"/>
<path d="M955 4018 c-34 -18 -45 -40 -45 -90 0 -47 0 -47 -42 -59 -63 -16
-124 -82 -132 -139 -6 -41 -76 -1022 -76 -1061 0 -14 -12 -17 -66 -21 -58 -4
-70 -8 -90 -32 -23 -26 -24 -34 -24 -180 0 -140 2 -156 21 -180 18 -23 28 -26
80 -26 l59 0 0 -322 c1 -238 4 -327 13 -339 21 -27 54 -39 106 -39 l51 0 0
-52 c0 -103 68 -185 164 -195 82 -10 155 30 187 101 l19 41 0 -82 0 -83 -135
0 c-131 0 -137 -1 -160 -25 -27 -27 -33 -79 -12 -106 26 -35 54 -39 242 -39
184 0 186 0 210 25 l25 24 0 546 0 545 59 0 c52 0 62 3 80 26 19 24 21 40 21
180 0 146 -1 154 -24 180 -20 24 -32 28 -90 32 -52 3 -66 8 -66 20 0 71 -73
1055 -81 1083 -12 47 -74 104 -128 119 -40 11 -41 12 -41 55 0 57 -7 73 -41
90 -33 18 -57 18 -84 3z m130 -320 c4 -11 75 -995 75 -1036 0 -9 -44 -12 -165
-12 -114 0 -165 3 -165 11 0 40 71 1026 75 1037 3 8 31 12 90 12 59 0 87 -4
90 -12z m255 -1258 l0 -40 -345 0 -345 0 0 40 0 40 345 0 345 0 0 -40z m-160
-245 l0 -35 -185 0 -185 0 0 35 0 35 185 0 185 0 0 -35z m0 -230 l0 -35 -185
0 -185 0 0 35 0 35 185 0 185 0 0 -35z m0 -235 l0 -30 -185 0 -185 0 0 30 0
30 185 0 185 0 0 -30z"/>
<path d="M515 3941 c-30 -13 -49 -37 -115 -151 -40 -70 -60 -116 -60 -137 0
-58 62 -97 119 -74 26 12 43 37 149 225 12 23 22 51 22 63 0 48 -69 93 -115
74z"/>
<path d="M4544 3940 c-27 -11 -54 -48 -54 -75 0 -20 5 -30 94 -187 52 -92 82
-116 131 -104 35 9 65 45 65 79 0 32 -97 213 -139 258 -29 32 -65 43 -97 29z"/>
<path d="M1682 3703 c-282 -191 -282 -624 1 -811 l37 -25 0 -693 0 -693 -44
-30 c-243 -168 -277 -525 -69 -742 97 -102 181 -131 233 -79 19 19 20 34 20
218 l0 197 50 28 50 28 50 -28 50 -28 0 -197 c0 -184 1 -199 20 -218 52 -52
136 -23 233 79 207 217 174 575 -69 742 l-44 30 0 694 0 693 33 21 c51 31 132
121 161 179 115 227 47 500 -158 636 -65 43 -121 49 -152 15 -17 -19 -20 -43
-24 -221 l-5 -199 -47 -26 -48 -26 -47 26 -48 26 -5 199 c-4 178 -7 202 -24
221 -31 34 -90 28 -154 -16z m28 -507 c31 -30 226 -136 250 -136 35 0 242 122
257 151 8 15 13 68 13 139 l1 115 21 -40 c11 -22 23 -66 26 -100 9 -119 -44
-229 -143 -292 -28 -17 -62 -43 -77 -56 l-28 -26 0 -770 c0 -546 3 -777 11
-795 6 -13 34 -36 61 -51 64 -35 111 -83 145 -148 24 -45 28 -64 28 -137 -1
-64 -5 -95 -20 -125 l-20 -40 -5 120 c-3 66 -9 127 -13 136 -12 25 -224 142
-257 142 -33 0 -245 -117 -257 -142 -4 -9 -10 -70 -13 -136 l-5 -120 -20 40
c-15 30 -19 61 -20 125 0 73 4 92 28 137 34 65 81 113 145 148 27 15 55 38 61
51 8 18 11 249 11 795 l0 770 -27 26 c-16 13 -50 39 -78 56 -98 63 -152 173
-142 291 2 34 13 79 23 100 l19 39 5 -126 c4 -94 9 -130 20 -141z"/>
<path d="M3615 3685 c-5 -2 -22 -6 -37 -9 -41 -9 -95 -61 -113 -109 -14 -37
-15 -110 -13 -615 l3 -574 24 -19 c20 -17 40 -19 163 -19 l139 0 -7 -37 c-4
-21 -33 -173 -65 -338 -55 -283 -60 -301 -85 -320 -169 -125 -256 -245 -306
-422 -28 -99 -29 -265 -4 -363 54 -203 197 -381 380 -470 143 -70 343 -90 500
-50 194 49 370 190 458 367 63 126 82 214 76 361 -6 140 -37 247 -103 349 -49
76 -146 177 -204 213 -23 14 -43 32 -45 40 -7 22 -126 644 -126 658 0 9 37 12
138 12 136 0 139 0 163 26 l24 26 3 546 c2 375 -1 563 -9 600 -15 73 -66 125
-138 141 -47 10 -788 15 -816 6z m783 -177 c7 -7 12 -29 12 -50 l0 -38 -395 0
-395 0 0 44 c0 26 5 46 13 49 6 3 179 6 383 6 275 1 373 -2 382 -11z m12 -303
l0 -45 -395 0 -395 0 0 45 0 45 395 0 395 0 0 -45z m0 -455 l0 -240 -99 0 -98
0 -23 33 c-82 120 -267 124 -348 7 l-27 -39 -97 -1 -98 0 0 240 0 240 395 0
395 0 0 -240z m-370 -300 c11 -11 20 -28 20 -37 0 -38 162 -848 172 -860 6 -7
41 -34 79 -59 63 -42 138 -115 160 -156 9 -17 -16 -18 -456 -18 -284 0 -465 4
-465 9 0 21 119 137 182 177 56 36 69 49 77 81 5 21 44 220 87 443 85 446 93
471 144 420z m514 -1316 c8 -20 8 -168 0 -188 -6 -14 -63 -16 -544 -16 l-537
0 -6 51 c-4 29 -4 78 0 110 l6 59 537 0 c481 0 538 -2 544 -16z m-74 -380 c0
-17 -77 -108 -122 -144 -59 -47 -154 -94 -218 -109 -66 -15 -197 -13 -265 4
-117 31 -240 116 -306 211 l-30 44 471 0 c258 0 470 -3 470 -6z"/>
<path d="M3975 2901 c-49 -20 -72 -74 -55 -126 15 -45 44 -65 96 -65 56 0 94
37 94 92 0 50 -13 74 -50 93 -32 16 -55 18 -85 6z"/>
<path d="M221 3363 c-23 -19 -77 -189 -88 -275 -7 -58 13 -93 57 -103 36 -8
86 9 95 33 17 41 75 266 75 288 0 60 -90 97 -139 57z"/>
<path d="M4785 3355 c-32 -32 -32 -49 9 -196 44 -158 42 -155 76 -169 60 -25
120 12 120 74 0 54 -64 267 -87 292 -30 33 -85 33 -118 -1z"/>
<path d="M102 2737 c-21 -22 -22 -33 -22 -178 0 -150 1 -156 23 -177 29 -28
86 -29 118 -3 23 19 24 23 24 181 0 158 -1 162 -24 181 -33 27 -92 25 -119 -4z"/>
<path d="M4899 2741 c-23 -19 -24 -23 -24 -181 0 -158 1 -162 24 -181 33 -27
92 -25 119 4 21 22 22 33 22 178 0 150 -1 156 -23 177 -29 28 -86 29 -118 3z"/>
<path d="M173 2130 c-53 -21 -53 -76 -3 -252 33 -114 51 -138 107 -138 41 0
83 37 83 74 0 21 -58 247 -75 287 -12 32 -68 46 -112 29z"/>
<path d="M4863 2129 c-12 -7 -25 -19 -28 -28 -17 -40 -75 -266 -75 -287 0 -37
42 -74 83 -74 56 0 74 24 108 140 41 142 47 198 23 228 -22 26 -79 37 -111 21z"/>
<path d="M385 1538 c-63 -34 -60 -78 13 -203 83 -143 84 -144 118 -155 53 -18
114 22 114 75 0 20 -5 30 -94 187 -58 103 -96 127 -151 96z"/>
<path d="M722 1007 c-15 -16 -22 -36 -22 -62 0 -36 8 -47 103 -142 97 -97 106
-103 143 -103 53 0 84 31 84 83 0 34 -9 47 -105 142 -96 97 -107 105 -143 105
-27 0 -45 -7 -60 -23z"/>
<path d="M1204 606 c-40 -34 -39 -89 3 -126 51 -45 228 -140 262 -140 56 0 95
63 72 119 -12 26 -37 43 -225 149 -52 28 -78 28 -112 -2z"/>
<path d="M1765 335 c-34 -33 -34 -88 -1 -118 24 -22 183 -71 269 -83 79 -11
126 45 97 116 -14 34 -11 32 -169 76 -147 41 -164 41 -196 9z"/>
<path d="M3155 326 c-152 -44 -151 -43 -163 -72 -19 -40 -14 -73 14 -101 23
-23 31 -25 74 -20 85 10 251 61 276 84 53 49 14 144 -58 142 -18 -1 -82 -16
-143 -33z"/>
<path d="M2403 240 c-50 -20 -60 -105 -17 -139 24 -19 40 -21 174 -21 134 0
150 2 174 21 32 26 36 84 7 120 -18 23 -25 24 -168 26 -81 1 -158 -2 -170 -7z"/>
</g>
</svg>
