<?xml version="1.0" standalone="no"?>
<!DOCTYPE svg PUBLIC "-//W3C//DTD SVG 20010904//EN"
 "http://www.w3.org/TR/2001/REC-SVG-20010904/DTD/svg10.dtd">
<svg version="1.0" xmlns="http://www.w3.org/2000/svg"
 width="512.000000pt" height="512.000000pt" viewBox="0 0 512.000000 512.000000"
 preserveAspectRatio="xMidYMid meet">
<metadata>
Created by potrace 1.16, written by Peter Selinger 2001-2019
</metadata>
<g transform="translate(0.000000,512.000000) scale(0.100000,-0.100000)"
fill="#000000" stroke="none">
<path d="M1223 5099 c-48 -23 -89 -68 -110 -116 -9 -22 -13 -79 -13 -183 l0
-150 -333 0 c-306 0 -335 -1 -350 -18 -19 -20 -417 -1534 -417 -1584 0 -64 12
-68 228 -68 l192 0 0 -1220 0 -1220 -112 0 c-130 0 -171 -14 -233 -75 -55 -56
-75 -106 -75 -195 0 -91 21 -141 80 -199 81 -78 -153 -72 2495 -69 l2370 3 52
33 c32 20 65 53 85 85 29 45 33 62 37 130 4 96 -14 149 -70 207 -64 66 -105
80 -236 80 l-113 0 0 1220 0 1220 193 0 c217 0 227 3 227 70 0 49 -399 1562
-417 1583 -15 15 -45 17 -349 17 l-333 0 -3 163 c-3 159 -4 165 -31 205 -15
23 -46 54 -69 69 l-42 28 -1305 3 -1306 2 -42 -21z m2624 -152 l28 -27 3 -900
2 -900 -90 0 -90 0 0 228 c0 276 5 265 -126 271 l-84 3 0 230 0 230 51 70 c28
39 55 82 59 97 9 33 -112 505 -136 533 -15 16 -35 18 -185 18 -164 0 -169 -1
-183 -22 -15 -24 -136 -481 -136 -514 0 -11 25 -55 55 -99 l55 -79 0 -232 0
-232 -86 -3 c-128 -6 -124 3 -124 -275 l0 -224 -200 0 -200 0 0 253 1 252 50
34 c116 79 212 216 261 371 21 69 23 92 23 295 l0 220 -28 60 c-36 76 -110
147 -183 175 -42 15 -78 20 -157 20 -56 0 -107 -4 -113 -8 -30 -20 -34 -55
-34 -309 l0 -258 -87 -47 -86 -46 -88 47 -89 46 0 265 c0 228 -2 269 -16 289
-16 22 -20 22 -138 19 -141 -4 -187 -21 -261 -94 -83 -84 -90 -108 -93 -359
-3 -179 0 -233 13 -290 37 -152 137 -302 260 -390 l65 -47 0 -249 0 -249 -260
0 -260 0 2 899 3 899 24 26 c13 14 33 27 45 29 11 3 580 4 1263 3 l1243 -1 27
-28z m-2067 -542 c0 -235 1 -256 19 -274 25 -25 284 -161 306 -161 26 0 286
137 308 162 15 18 17 47 17 275 l0 255 33 -7 c69 -14 97 -28 131 -65 48 -53
56 -92 56 -260 0 -165 -15 -252 -58 -345 -35 -73 -136 -185 -201 -222 -88 -50
-81 -20 -81 -350 l0 -293 -200 0 -200 0 0 281 c0 175 -4 288 -10 300 -6 10
-40 37 -75 60 -117 73 -199 184 -241 325 -27 89 -27 404 0 454 40 75 84 103
189 119 4 0 7 -114 7 -254z m1579 218 c6 -21 28 -105 50 -187 l39 -150 -54
-79 -54 -78 0 -255 0 -254 -60 0 -60 0 0 261 0 261 -51 71 -52 71 33 125 c18
69 40 154 48 189 l16 62 68 0 67 0 10 -37z m-2259 -808 l0 -695 -466 0 -466 0
7 28 c10 44 345 1325 351 1345 5 16 28 17 290 17 l284 0 0 -695z m3494 678 c6
-20 341 -1301 351 -1345 l7 -28 -466 0 -466 0 0 695 0 695 284 0 c262 0 285
-1 290 -17z m-1034 -1198 l0 -175 -275 0 -275 0 0 175 0 175 275 0 275 0 0
-175z m1000 -1535 l0 -1220 -1185 0 -1185 0 0 966 c0 971 -1 994 -34 1016 -6
4 -319 8 -695 8 -623 0 -686 -1 -703 -17 -17 -15 -18 -59 -18 -995 l0 -978
-90 0 -90 0 0 1220 0 1220 2000 0 2000 0 0 -1220z m-2520 -295 l0 -925 -580 0
-580 0 0 925 0 925 580 0 580 0 0 -925z m2824 -1072 c25 -4 50 -18 72 -40 29
-29 34 -40 34 -83 0 -43 -5 -54 -34 -83 -22 -22 -47 -36 -72 -40 -51 -9 -4557
-9 -4608 0 -25 4 -50 18 -72 40 -29 29 -34 40 -34 83 0 43 4 54 35 84 19 19
47 36 62 39 46 7 4575 7 4617 0z"/>
<path d="M2547 2512 c-15 -17 -17 -75 -17 -628 0 -335 4 -614 8 -620 22 -33
46 -34 917 -34 871 0 895 1 917 34 4 6 8 286 8 622 0 579 -1 612 -18 627 -17
16 -94 17 -909 17 -849 0 -891 -1 -906 -18z m1693 -627 l0 -505 -785 0 -785 0
0 505 0 505 785 0 785 0 0 -505z"/>
<path d="M1660 1660 c-18 -18 -20 -33 -20 -140 0 -115 1 -122 25 -145 13 -14
36 -25 50 -25 14 0 37 11 50 25 24 23 25 30 25 145 0 138 -10 160 -75 160 -22
0 -43 -8 -55 -20z"/>
</g>
</svg>
